<?xml version="1.0" encoding="UTF-8"?>
<svg id="Layer_1" data-name="Layer 1" xmlns="http://www.w3.org/2000/svg" xmlns:xlink="http://www.w3.org/1999/xlink" viewBox="0 0 1905 228">
  <defs>
    <linearGradient id="linear-gradient" x1="1680.52" y1="164.8" x2="1966.473" y2="164.8" gradientUnits="userSpaceOnUse">
      <stop offset=".074" stop-color="#fff"/>
      <stop offset=".365" stop-color="#fff"/>
      <stop offset=".884" stop-color="#f3d195"/>
    </linearGradient>
    <linearGradient id="linear-gradient-2" x1="1368.912" y1="-14.37" x2="1416.038" y2="-14.37" gradientTransform="translate(1431.573 -1406.374) rotate(92.2)" xlink:href="#linear-gradient"/>
    <linearGradient id="linear-gradient-3" x1="1337.363" y1="-14.372" x2="1447.588" y2="-14.372" gradientTransform="translate(1431.573 -1406.374) rotate(92.2)" xlink:href="#linear-gradient"/>
    <linearGradient id="linear-gradient-4" x1="1405.313" y1="11.436" x2="1409.477" y2="11.436" gradientTransform="translate(1431.573 -1406.374) rotate(92.2)" xlink:href="#linear-gradient"/>
    <linearGradient id="linear-gradient-5" x1="1418.4" y1="-4.178" x2="1422.56" y2="-4.178" gradientTransform="translate(1431.573 -1406.374) rotate(92.2)" xlink:href="#linear-gradient"/>
    <linearGradient id="linear-gradient-6" x1="1419.999" y1="-10.908" x2="1424.162" y2="-10.908" gradientTransform="translate(1431.573 -1406.374) rotate(92.2)" xlink:href="#linear-gradient"/>
    <linearGradient id="linear-gradient-7" x1="1410.852" y1="7.295" x2="1415.021" y2="7.295" gradientTransform="translate(1431.573 -1406.374) rotate(92.2)" xlink:href="#linear-gradient"/>
    <linearGradient id="linear-gradient-8" x1="1415.3" y1="2" x2="1419.468" y2="2" gradientTransform="translate(1431.573 -1406.374) rotate(92.2)" xlink:href="#linear-gradient"/>
    <linearGradient id="linear-gradient-9" x1="1405.324" y1="-40.168" x2="1409.482" y2="-40.168" gradientTransform="translate(1431.573 -1406.374) rotate(92.2)" xlink:href="#linear-gradient"/>
    <linearGradient id="linear-gradient-10" x1="1410.867" y1="-36.029" x2="1415.027" y2="-36.029" gradientTransform="translate(1431.573 -1406.374) rotate(92.2)" xlink:href="#linear-gradient"/>
    <linearGradient id="linear-gradient-11" x1="1418.404" y1="-24.553" x2="1422.562" y2="-24.553" gradientTransform="translate(1431.573 -1406.374) rotate(92.2)" xlink:href="#linear-gradient"/>
    <linearGradient id="linear-gradient-12" x1="1419.993" y1="-17.816" x2="1424.163" y2="-17.816" gradientTransform="translate(1431.573 -1406.374) rotate(92.2)" xlink:href="#linear-gradient"/>
    <linearGradient id="linear-gradient-13" x1="1415.308" y1="-30.733" x2="1419.458" y2="-30.733" gradientTransform="translate(1431.573 -1406.374) rotate(92.2)" xlink:href="#linear-gradient"/>
    <linearGradient id="linear-gradient-14" x1="1298.884" y1="-14.373" x2="1486.068" y2="-14.373" gradientTransform="translate(1431.573 -1406.374) rotate(92.2)" xlink:href="#linear-gradient"/>
    <linearGradient id="linear-gradient-15" x1="464.156" y1="247.793" x2="511.281" y2="247.793" gradientTransform="translate(178.343 695.914) rotate(-84.112)" xlink:href="#linear-gradient"/>
    <linearGradient id="linear-gradient-16" x1="432.606" y1="247.792" x2="542.831" y2="247.792" gradientTransform="translate(178.343 695.914) rotate(-84.112)" xlink:href="#linear-gradient"/>
    <linearGradient id="linear-gradient-17" x1="500.556" y1="273.599" x2="504.72" y2="273.599" gradientTransform="translate(178.343 695.914) rotate(-84.112)" xlink:href="#linear-gradient"/>
    <linearGradient id="linear-gradient-18" x1="513.643" y1="257.985" x2="517.803" y2="257.985" gradientTransform="translate(178.343 695.914) rotate(-84.112)" xlink:href="#linear-gradient"/>
    <linearGradient id="linear-gradient-19" x1="515.242" y1="251.255" x2="519.405" y2="251.255" gradientTransform="translate(178.343 695.914) rotate(-84.112)" xlink:href="#linear-gradient"/>
    <linearGradient id="linear-gradient-20" x1="506.095" y1="269.458" x2="510.265" y2="269.458" gradientTransform="translate(178.343 695.914) rotate(-84.112)" xlink:href="#linear-gradient"/>
    <linearGradient id="linear-gradient-21" x1="510.543" y1="264.163" x2="514.711" y2="264.163" gradientTransform="translate(178.343 695.914) rotate(-84.112)" xlink:href="#linear-gradient"/>
    <linearGradient id="linear-gradient-22" x1="494.222" y1="219.246" x2="498.387" y2="219.246" gradientTransform="translate(178.343 695.914) rotate(-84.112)" xlink:href="#linear-gradient"/>
    <linearGradient id="linear-gradient-23" x1="500.567" y1="221.995" x2="504.725" y2="221.995" gradientTransform="translate(178.343 695.914) rotate(-84.112)" xlink:href="#linear-gradient"/>
    <linearGradient id="linear-gradient-24" x1="506.11" y1="226.134" x2="510.271" y2="226.134" gradientTransform="translate(178.343 695.914) rotate(-84.112)" xlink:href="#linear-gradient"/>
    <linearGradient id="linear-gradient-25" x1="513.647" y1="237.61" x2="517.805" y2="237.61" gradientTransform="translate(178.343 695.914) rotate(-84.112)" xlink:href="#linear-gradient"/>
    <linearGradient id="linear-gradient-26" x1="515.236" y1="244.347" x2="519.406" y2="244.347" gradientTransform="translate(178.343 695.914) rotate(-84.112)" xlink:href="#linear-gradient"/>
    <linearGradient id="linear-gradient-27" x1="510.551" y1="231.43" x2="514.701" y2="231.43" gradientTransform="translate(178.343 695.914) rotate(-84.112)" xlink:href="#linear-gradient"/>
    <linearGradient id="linear-gradient-28" x1="478.136" y1="247.793" x2="497.302" y2="247.793" gradientTransform="translate(178.343 695.914) rotate(-84.112)" xlink:href="#linear-gradient"/>
    <linearGradient id="linear-gradient-29" x1="394.127" y1="247.79" x2="581.311" y2="247.79" gradientTransform="translate(178.343 695.914) rotate(-84.112)" xlink:href="#linear-gradient"/>
    <linearGradient id="linear-gradient-30" x1="-53.878" y1="49.445" x2="105.46" y2="49.445" xlink:href="#linear-gradient"/>
    <linearGradient id="linear-gradient-31" x1="366.668" y1="194.564" x2="366.668" y2="63.362" xlink:href="#linear-gradient"/>
    <linearGradient id="linear-gradient-32" x1="157.356" y1="194.564" x2="157.356" y2="63.362" xlink:href="#linear-gradient"/>
    <linearGradient id="linear-gradient-33" x1="264.191" y1="217.155" x2="264.191" y2="124.972" xlink:href="#linear-gradient"/>
    <linearGradient id="linear-gradient-34" x1="265.185" y1="217.155" x2="265.185" y2="124.972" xlink:href="#linear-gradient"/>
    <linearGradient id="linear-gradient-35" x1="251.579" y1="217.155" x2="251.579" y2="124.972" xlink:href="#linear-gradient"/>
    <linearGradient id="linear-gradient-36" x1="278.792" y1="217.155" x2="278.792" y2="124.972" xlink:href="#linear-gradient"/>
    <linearGradient id="linear-gradient-37" x1="265.185" y1="217.155" x2="265.185" y2="124.971" xlink:href="#linear-gradient"/>
    <linearGradient id="linear-gradient-38" x1="199.216" y1="217.155" x2="199.216" y2="124.972" xlink:href="#linear-gradient"/>
    <linearGradient id="linear-gradient-39" x1="331.155" y1="217.155" x2="331.155" y2="124.972" xlink:href="#linear-gradient"/>
    <linearGradient id="linear-gradient-40" x1="265.185" y1="217.155" x2="265.185" y2="124.972" xlink:href="#linear-gradient"/>
    <linearGradient id="linear-gradient-41" x1="236.672" y1="217.155" x2="236.672" y2="124.972" xlink:href="#linear-gradient"/>
    <linearGradient id="linear-gradient-42" x1="293.699" y1="217.155" x2="293.699" y2="124.972" xlink:href="#linear-gradient"/>
    <linearGradient id="linear-gradient-43" x1="1558.776" y1="325.724" x2="1559.797" y2="20.362" gradientUnits="userSpaceOnUse">
      <stop offset=".074" stop-color="#e8e8e8"/>
      <stop offset=".365" stop-color="#fff"/>
      <stop offset=".884" stop-color="#f3d195"/>
    </linearGradient>
    <linearGradient id="linear-gradient-44" x1="1766.236" y1="326.418" x2="1767.258" y2="21.056" xlink:href="#linear-gradient-43"/>
    <linearGradient id="linear-gradient-45" x1="1660.104" y1="326.063" x2="1661.125" y2="20.701" xlink:href="#linear-gradient-43"/>
    <linearGradient id="linear-gradient-46" x1="1659.184" y1="326.06" x2="1660.205" y2="20.698" xlink:href="#linear-gradient-43"/>
    <linearGradient id="linear-gradient-47" x1="1672.695" y1="326.105" x2="1673.717" y2="20.743" xlink:href="#linear-gradient-43"/>
    <linearGradient id="linear-gradient-48" x1="1645.73" y1="326.015" x2="1646.751" y2="20.653" xlink:href="#linear-gradient-43"/>
    <linearGradient id="linear-gradient-49" x1="1659.534" y1="326.061" x2="1660.555" y2="20.699" xlink:href="#linear-gradient-43"/>
    <linearGradient id="linear-gradient-50" x1="1724.874" y1="326.279" x2="1725.895" y2="20.918" xlink:href="#linear-gradient-43"/>
    <linearGradient id="linear-gradient-51" x1="1594.136" y1="325.842" x2="1595.157" y2="20.48" xlink:href="#linear-gradient-43"/>
    <linearGradient id="linear-gradient-52" x1="1659.575" y1="326.061" x2="1660.597" y2="20.699" xlink:href="#linear-gradient-43"/>
    <linearGradient id="linear-gradient-53" x1="1687.928" y1="326.156" x2="1688.949" y2="20.794" xlink:href="#linear-gradient-43"/>
    <linearGradient id="linear-gradient-54" x1="1631.421" y1="325.967" x2="1632.442" y2="20.605" xlink:href="#linear-gradient-43"/>
    <linearGradient id="linear-gradient-55" x1="-136.532" y1="118.745" x2="676.404" y2="118.745" gradientTransform="translate(-165.957)" gradientUnits="userSpaceOnUse">
      <stop offset=".074" stop-color="#fff" stop-opacity="0"/>
      <stop offset=".884" stop-color="#f3d195"/>
    </linearGradient>
    <linearGradient id="linear-gradient-56" x1="-2076.957" y1="118.745" x2="-1264.021" y2="118.745" gradientTransform="translate(3584.17 237.489) scale(1 -1)" xlink:href="#linear-gradient-55"/>
  </defs>
  <path d="M1681.758,250.151l-1.238-.045c.625-17.037,16.731-29.21,32.317-32.428,14.08-2.903,28.615-.474,42.674,1.874,1.911,.321,3.82,.64,5.723,.944,14.881,2.385,30.055,3.941,45.1,4.622,11.536,.525,23.774,.546,35.176-2.806,12.428-3.654,22.328-11.217,27.165-20.75,3.858-7.609,4.102-16.616,1.165-23.882-.485,.511-.981,1.012-1.486,1.504-5.058,4.919-9.946,7.607-14.943,8.215-5.396,.658-12.339-1.842-14.537-7.775-.996-2.687-.793-5.752,.572-8.632,1.549-3.268,4.424-5.891,7.688-7.012,5.721-1.963,12.751-.188,17.914,4.53,2.131,1.945,3.853,4.316,5.149,6.953,8.107-9.146,13.069-21.068,13.756-33.276,.266-4.766-.097-9.646-.448-14.363-.44-5.924-.896-12.049-.121-18.057,1.396-10.801,8.892-22.591,20.038-23.168,8.132-.438,14.608,4.949,20.861,10.144,4.872,4.045,9.909,8.231,15.775,9.804,7.12,1.91,15.206-.495,20.125-5.986,4.919-5.491,6.423-13.794,3.742-20.66l1.154-.451c2.845,7.291,1.247,16.107-3.974,21.936-5.219,5.829-13.799,8.384-21.368,6.356-6.128-1.644-11.272-5.916-16.246-10.047-6.35-5.275-12.357-10.278-20.006-9.862-10.478,.543-17.545,11.788-18.874,22.091-.761,5.884-.309,11.946,.127,17.807,.355,4.758,.72,9.678,.448,14.524-.711,12.665-5.923,25.028-14.426,34.433,3.293,7.683,3.128,17.327-.983,25.434-4.988,9.836-15.164,17.627-27.919,21.376-11.578,3.404-23.946,3.381-35.579,2.857-15.093-.685-30.314-2.245-45.241-4.638-1.905-.305-3.816-.625-5.731-.944-13.951-2.334-28.372-4.743-42.218-1.884-15.114,3.122-30.73,14.863-31.331,31.262Zm170.251-85.725c-1.542,0-3.052,.235-4.472,.724-2.956,1.015-5.562,3.399-6.972,6.373-1.22,2.577-1.409,5.301-.53,7.673,1.977,5.336,8.29,7.583,13.229,6.975,4.717-.575,9.372-3.151,14.228-7.873,.619-.603,1.223-1.22,1.812-1.852-1.251-2.674-2.956-5.072-5.09-7.024-3.536-3.231-7.992-4.996-12.204-4.996Z" fill="url(#linear-gradient)"/>
  <g>
    <path d="M1391.99-37.931c-12.99,.267-23.342,11.052-23.075,24.041,.267,12.989,11.053,23.34,24.043,23.073,12.99-.267,23.34-11.052,23.073-24.041-.267-12.989-11.051-23.34-24.041-23.074Zm21.963,23.117c.243,11.843-9.195,21.676-21.038,21.919-11.845,.244-21.678-9.194-21.922-21.037-.243-11.843,9.194-21.676,21.039-21.92,11.843-.243,21.677,9.195,21.92,21.038Z" fill="url(#linear-gradient-2)"/>
    <path d="M1423.988-59.643c-2.042-1.578-4.487-2.163-6.147-2.462-.917-.178-1.941-.196-3.207-.047-1.02,.119-2,.343-2.92,.665-1.708,.562-3.428,1.729-4.823,3.282-.869,.972-1.59,2.103-2.175,3.358,.514-3.395-.211-6.682-2.127-9.41-1.195-1.566-2.771-2.858-4.708-3.876-1.8-.871-3.967-1.347-6.476-1.433-2.628,.191-4.774,.756-6.505,1.681-1.932,1.117-3.453,2.472-4.555,4.048-1.86,2.891-2.447,6.282-1.734,9.72-.649-1.289-1.396-2.482-2.34-3.457-1.459-1.495-3.226-2.591-4.98-3.089-.907-.278-1.898-.461-2.92-.539-1.269-.096-2.294-.037-3.218,.184-1.629,.363-4.05,1.046-6.061,2.736-.863,.67-1.688,1.444-2.421,2.272-.677,.859-1.238,1.766-1.756,2.825-.543,1.136-.867,2.042-1.057,2.948-.19,1.049-.264,2.061-.227,3.041,.059,3.188,1.543,6.266,4.111,8.667-3.093-1.57-6.363-1.879-9.564-.858-3.912,1.242-7.182,4.704-8.534,9.035-.608,2.03-.754,4.249-.438,6.606,.476,2.178,1.332,4.093,2.49,5.632,2.104,2.607,5.077,4.193,8.508,4.613-3.411,.56-6.313,2.261-8.288,4.927-1.119,1.617-1.895,3.565-2.268,5.663-.231,2.466,.005,4.676,.692,6.667,1.533,4.285,4.942,7.61,8.903,8.69,1.179,.323,2.362,.471,3.536,.447,2.049-.042,4.066-.628,5.993-1.71-2.473,2.508-3.833,5.651-3.761,8.862,.003,.958,.118,1.966,.343,2.974,.235,.929,.596,1.821,1.179,2.924,.567,1.046,1.164,1.929,1.832,2.71,.809,.846,1.667,1.585,2.593,2.247,1.549,1.199,3.514,1.991,6.149,2.462,.567,.11,1.176,.159,1.857,.144,.418-.009,.865-.041,1.346-.097,1.017-.117,1.999-.342,2.92-.665,1.71-.563,3.43-1.731,4.825-3.281,.905-1.014,1.602-2.236,2.198-3.55-.572,3.463,.151,6.822,2.104,9.602,1.195,1.567,2.771,2.86,4.71,3.876,1.802,.871,3.969,1.347,6.474,1.432,2.631-.19,4.778-.755,6.507-1.681,1.926-1.113,3.447-2.468,4.553-4.046,1.825-2.837,2.417-6.156,1.765-9.527,.636,1.229,1.402,2.329,2.309,3.263,1.458,1.495,3.225,2.591,4.978,3.088,.913,.278,1.904,.461,2.92,.538,.482,.037,.929,.05,1.347,.041,.685-.014,1.297-.088,1.872-.225,2.596-.576,4.527-1.446,6.061-2.735,.857-.667,1.682-1.44,2.419-2.271,.679-.86,1.24-1.768,1.758-2.826,.545-1.139,.869-2.045,1.057-2.95,.189-1.042,.265-2.055,.228-3.039-.059-3.193-1.549-6.275-4.124-8.679,1.97,1.002,4.012,1.506,6.063,1.463,1.174-.024,2.35-.221,3.516-.593,3.912-1.241,7.179-4.703,8.53-9.034,.61-2.025,.758-4.243,.44-6.606-.477-2.179-1.332-4.093-2.493-5.632-2.103-2.608-5.075-4.193-8.507-4.613,3.411-.56,6.313-2.262,8.288-4.926,1.118-1.618,1.895-3.565,2.268-5.664,.231-2.47-.005-4.682-.694-6.668-1.529-4.282-4.938-7.607-8.9-8.689-3.236-.886-6.496-.443-9.524,1.253,2.468-2.507,3.826-5.646,3.754-8.853-.003-.962-.12-1.971-.345-2.977-.231-.924-.592-1.816-1.177-2.922-.567-1.046-1.165-1.929-1.832-2.71-.817-.853-1.674-1.59-2.593-2.246Zm-41.707-2.896c.881-1.257,2.152-2.383,3.754-3.309,1.407-.751,3.242-1.226,5.418-1.391,2.055,.078,3.907,.477,5.378,1.187,1.601,.842,2.916,1.916,3.878,3.173,1.837,2.617,2.328,5.8,1.395,9.169-3.354-.822-6.85-1.271-10.462-1.197-3.613,.074-7.087,.666-10.404,1.625-1.07-3.328-.71-6.528,1.044-9.257Zm-26.318,15.277c-.031-.836,.032-1.68,.185-2.531,.143-.684,.412-1.426,.866-2.377,.434-.887,.924-1.68,1.448-2.348,.594-.667,1.313-1.341,2.098-1.951,1.268-1.063,2.882-1.779,5.118-2.276,.7-.166,1.496-.205,2.52-.132,.85,.065,1.669,.217,2.435,.451,1.389,.395,2.789,1.272,3.966,2.478,1.067,1.1,1.917,2.482,2.533,4.092-6.592,2.708-12.316,7.071-16.628,12.601-2.83-2.083-4.484-4.995-4.54-8.007Zm-12.427,27.711c-.936-1.244-1.647-2.846-2.036-4.604-.254-1.931-.133-3.819,.374-5.518,1.125-3.601,3.812-6.478,7.01-7.493,3.051-.973,6.208-.457,9.143,1.489-3.629,5.847-5.783,12.67-6.022,19.961-3.474-.012-6.48-1.37-8.469-3.835Zm6.323,29.744c-3.238-.883-6.042-3.646-7.318-7.212-.572-1.663-.77-3.547-.582-5.584,.303-1.675,.947-3.304,1.854-4.616,1.864-2.514,4.812-3.995,8.282-4.148,.539,7.275,2.971,14.003,6.837,19.696-2.851,2.063-5.986,2.709-9.073,1.864Zm26.459,17.714c-1.122,1.249-2.485,2.183-3.836,2.628-.782,.274-1.595,.459-2.439,.558-1.02,.118-1.814,.109-2.506-.024-2.268-.406-3.91-1.054-5.185-2.04-.846-.605-1.594-1.249-2.258-1.941-.506-.596-1.028-1.368-1.504-2.247-.487-.92-.786-1.651-.965-2.361-.18-.812-.276-1.653-.28-2.466-.068-3.035,1.465-6.012,4.208-8.21,4.535,5.348,10.434,9.473,17.131,11.907-.55,1.635-1.342,3.05-2.365,4.196Zm26.349,5.887c-.883,1.259-2.156,2.385-3.752,3.309-1.409,.752-3.242,1.226-5.42,1.39-2.053-.077-3.905-.476-5.378-1.187-1.6-.841-2.916-1.912-3.877-3.171-1.837-2.617-2.328-5.8-1.396-9.17,3.354,.822,6.85,1.271,10.462,1.197,3.613-.074,7.087-.667,10.404-1.626,1.07,3.329,.71,6.529-1.043,9.257Zm26.318-15.275c.03,.837-.032,1.68-.187,2.529-.141,.686-.41,1.428-.864,2.378-.434,.887-.924,1.68-1.448,2.348-.598,.67-1.319,1.346-2.098,1.953-1.27,1.065-2.884,1.778-5.116,2.274-.705,.167-1.504,.206-2.524,.132-.844-.064-1.665-.216-2.435-.451-1.389-.394-2.787-1.272-3.963-2.477-1.067-1.098-1.915-2.479-2.534-4.093,6.592-2.708,12.316-7.071,16.628-12.601,2.828,2.086,4.484,4.997,4.54,8.008Zm12.426-27.711c.936,1.243,1.647,2.845,2.036,4.603,.254,1.935,.133,3.824-.375,5.517-1.123,3.603-3.81,6.479-7.007,7.494-3.054,.975-6.212,.454-9.145-1.489,3.629-5.847,5.782-12.67,6.022-19.96,3.474,.011,6.48,1.369,8.469,3.835Zm-6.321-29.744c3.238,.884,6.041,3.647,7.315,7.213,.574,1.659,.772,3.542,.584,5.582-.303,1.675-.947,3.304-1.856,4.618-1.862,2.513-4.81,3.993-8.28,4.147-.539-7.275-2.971-14.004-6.837-19.697,2.851-2.063,5.986-2.71,9.074-1.864Zm-4.161,23.774c.436,21.205-16.461,38.811-37.666,39.247-21.204,.436-38.81-16.462-39.245-37.667-.435-21.204,16.462-38.81,37.666-39.245,21.204-.436,38.81,16.461,39.245,37.666Zm-4.571-38.421c.487,.92,.786,1.651,.961,2.358,.183,.814,.28,1.654,.284,2.469,.068,3.032-1.467,6.009-4.207,8.21-4.535-5.349-10.434-9.473-17.132-11.908,.552-1.638,1.342-3.053,2.363-4.194,1.126-1.251,2.489-2.186,3.836-2.63,.778-.273,1.593-.458,2.441-.558,1.013-.116,1.812-.109,2.506,.024,2.27,.41,3.914,1.057,5.186,2.041,.84,.599,1.586,1.244,2.259,1.941,.505,.595,1.026,1.367,1.503,2.246Z" fill="url(#linear-gradient-3)"/>
    <path d="M1367.943-1.436c-.526-1.016-1.794-1.398-2.792-.853-1.016,.525-1.418,1.793-.872,2.811,.382,.709,1.129,1.12,1.884,1.105,.311-.007,.62-.09,.925-.252,1.017-.545,1.399-1.793,.855-2.81Z" fill="url(#linear-gradient-4)"/>
    <path d="M1383.135,14.019c.444-1.075-.066-2.286-1.143-2.71v-.02c-1.056-.424-2.268,.086-2.712,1.142-.423,1.075,.087,2.287,1.143,2.711,.273,.111,.547,.163,.836,.158,.795-.016,1.562-.497,1.875-1.28Z" fill="url(#linear-gradient-5)"/>
    <path d="M1389.932,15.392c.17-1.128-.608-2.198-1.736-2.369-1.129-.19-2.2,.589-2.37,1.736-.191,1.129,.589,2.199,1.736,2.37,.116,.016,.234,.033,.349,.031,1.009-.021,1.865-.756,2.02-1.767Z" fill="url(#linear-gradient-6)"/>
    <path d="M1371.601,3.861c-.756-.858-2.076-.946-2.934-.192-.856,.755-.946,2.075-.192,2.932,.417,.496,1.004,.736,1.606,.724,.466-.01,.947-.194,1.326-.531,.858-.755,.948-2.056,.194-2.933Z" fill="url(#linear-gradient-7)"/>
    <path d="M1376.362,8.184c-.925-.659-2.219-.439-2.899,.487-.659,.944-.439,2.239,.487,2.899,.373,.283,.823,.41,1.249,.401,.64-.013,1.255-.318,1.65-.888,.659-.924,.458-2.219-.487-2.899Z" fill="url(#linear-gradient-8)"/>
    <path d="M1415.921,.43c-.621,.963-.324,2.237,.64,2.857,.374,.224,.764,.333,1.151,.325,.68-.014,1.332-.357,1.726-.966,.62-.982,.321-2.256-.641-2.876-.982-.601-2.256-.322-2.876,.66Z" fill="url(#linear-gradient-9)"/>
    <path d="M1411.857,8.368c.416,.418,.962,.639,1.524,.627,.505-.01,1.005-.214,1.404-.591,.817-.811,.829-2.13,.036-2.948-.812-.816-2.131-.828-2.948-.036-.819,.812-.829,2.131-.017,2.948Z" fill="url(#linear-gradient-10)"/>
    <path d="M1400.936,12.024c-1.099,.352-1.696,1.528-1.344,2.626,.291,.887,1.117,1.452,2.027,1.433,.193-.004,.388-.028,.58-.089,1.099-.352,1.696-1.528,1.363-2.608-.352-1.098-1.53-1.714-2.626-1.362Z" fill="url(#linear-gradient-11)"/>
    <path d="M1394.619,13.259c-1.142,.101-1.995,1.089-1.912,2.231,.1,1.103,1.029,1.957,2.134,1.935,.019,0,.057-.002,.097-.002,1.161-.101,2.013-1.088,1.912-2.25-.082-1.142-1.088-1.995-2.23-1.914Z" fill="url(#linear-gradient-12)"/>
    <path d="M1406.078,12.23c.402,.651,1.108,1.004,1.844,.99,.348-.007,.695-.092,1.02-.293,.979-.583,1.301-1.869,.699-2.846-.583-.996-1.869-1.3-2.846-.717-.976,.602-1.301,1.869-.718,2.866Z" fill="url(#linear-gradient-13)"/>
    <path d="M1399.272-96.754c-2.565-2.875-5.216-5.848-7.765-9.81l-.994-1.546-.876,1.616c-1.711,3.157-4.442,6.508-7.08,9.747-1.422,1.745-2.891,3.55-4.179,5.298-.334,.453-.607,.923-.857,1.398-.412-.344-.844-.675-1.325-.967-1.852-1.125-3.719-2.129-5.524-3.101-3.39-1.823-6.892-3.708-10.638-6.554l-1.464-1.112-.269,1.818c-.529,3.56-1.951,7.651-3.326,11.607-.737,2.116-1.497,4.305-2.107,6.379-.159,.541-.255,1.075-.327,1.608-.505-.183-1.024-.346-1.576-.456-2.122-.423-4.217-.727-6.242-1.022-3.812-.554-7.752-1.128-12.25-2.522l-1.755-.544,.368,1.801c.722,3.526,.785,7.857,.846,12.045,.033,2.239,.065,4.556,.2,6.714,.036,.563,.129,1.099,.243,1.625-.537,0-1.08,.024-1.637,.108-2.141,.329-4.213,.76-6.22,1.176-3.768,.782-7.666,1.591-12.366,1.818l-1.835,.089,.96,1.567c1.885,3.068,3.424,7.116,4.914,11.031,.797,2.093,1.621,4.258,2.486,6.239,.225,.514,.484,.993,.77,1.447-.501,.184-1,.39-1.49,.659-1.897,1.04-3.698,2.154-5.439,3.23-3.275,2.025-6.66,4.118-10.999,5.939l-1.696,.711,1.44,1.143c2.817,2.239,5.649,5.518,8.388,8.687,1.465,1.696,2.978,3.447,4.468,5.014,.39,.409,.817,.741,1.245,1.071-.417,.35-.823,.722-1.199,1.152-1.427,1.627-2.737,3.289-4.005,4.895-2.385,3.023-4.851,6.149-8.306,9.346l-1.349,1.248,1.743,.582c3.415,1.14,7.201,3.252,10.86,5.295,1.954,1.09,3.974,2.218,5.908,3.179,.504,.25,1.014,.441,1.526,.604-.268,.465-.518,.946-.722,1.47-.784,2.016-1.448,4.026-2.09,5.969-1.207,3.657-2.455,7.438-4.609,11.624l-.842,1.634,1.838-.049c3.587-.105,7.881,.594,12.018,1.262,2.208,.356,4.492,.725,6.637,.966,.49,.055,.971,.077,1.445,.068,.066-.001,.129-.018,.195-.02-.092,.527-.163,1.064-.175,1.625-.048,2.164,.016,4.282,.077,6.329,.117,3.848,.236,7.826-.357,12.495l-.231,1.823,1.709-.674c3.354-1.323,7.611-2.138,11.729-2.926,2.196-.42,4.467-.854,6.564-1.36,.548-.133,1.06-.317,1.558-.522,.094,.529,.213,1.06,.394,1.593,.694,2.052,1.478,4.022,2.237,5.925,1.424,3.575,2.896,7.271,3.935,11.859l.406,1.792,1.377-1.219c2.695-2.387,6.414-4.607,10.01-6.754,1.923-1.148,3.914-2.336,5.715-3.532,.469-.311,.886-.659,1.283-1.021,.269,.465,.562,.923,.915,1.362,1.353,1.686,2.758,3.262,4.117,4.787,2.565,2.875,5.217,5.849,7.768,9.812l.994,1.547,.876-1.617c1.717-3.166,4.453-6.527,7.1-9.776,1.415-1.736,2.876-3.531,4.159-5.268,.334-.453,.607-.923,.857-1.398,.412,.345,.843,.675,1.324,.967,1.849,1.121,3.71,2.123,5.51,3.092,3.394,1.825,6.902,3.712,10.653,6.563l1.464,1.112,.269-1.818c.531-3.566,1.954-7.663,3.333-11.626,.733-2.111,1.491-4.293,2.1-6.36,.159-.54,.255-1.075,.327-1.608,.505,.183,1.023,.346,1.575,.456,2.12,.421,4.212,.726,6.235,1.02,3.812,.554,7.756,1.127,12.256,2.523l1.753,.544-.366-1.801c-.72-3.527-.783-7.857-.844-12.045-.033-2.241-.067-4.557-.202-6.714-.035-.56-.128-1.094-.241-1.618,.065,0,.126,.013,.191,.012,.473-.01,.955-.052,1.446-.127,2.135-.329,4.206-.759,6.208-1.174,3.772-.783,7.672-1.592,12.377-1.819l1.835-.088-.962-1.567c-1.881-3.064-3.418-7.107-4.906-11.016-.799-2.099-1.623-4.27-2.492-6.255-.225-.515-.495-.985-.781-1.439,.505-.185,1.006-.396,1.499-.667,1.895-1.04,3.694-2.151,5.434-3.227,3.276-2.025,6.665-4.119,11.008-5.942l1.696-.711-1.44-1.143c-2.821-2.242-5.657-5.522-8.398-8.695-1.463-1.692-2.974-3.442-4.461-5.004-.394-.413-.815-.769-1.246-1.101,.414-.348,.827-.697,1.2-1.123,1.423-1.624,2.732-3.283,3.996-4.886,2.388-3.025,4.856-6.154,8.317-9.355l1.349-1.248-1.743-.582c-3.415-1.138-7.193-3.248-10.85-5.287-1.958-1.093-3.983-2.223-5.921-3.185-.5-.248-1.005-.432-1.512-.596,.267-.464,.507-.955,.71-1.479,.784-2.015,1.446-4.023,2.087-5.965,1.209-3.658,2.457-7.441,4.613-11.629l.841-1.635-1.838,.049c-.051,.003-.102,.004-.155,.005-3.564,.073-7.775-.605-11.849-1.264-2.214-.357-4.503-.725-6.652-.968-.56-.062-1.104-.063-1.641-.041,.092-.53,.163-1.07,.175-1.633,.048-2.164-.016-4.28-.077-6.327-.117-3.848-.236-7.827,.357-12.497l.232-1.824-1.71,.676c-3.346,1.321-7.598,2.134-11.709,2.922-2.203,.421-4.48,.857-6.584,1.365-.548,.133-1.06,.317-1.558,.522-.094-.53-.213-1.06-.394-1.594-.694-2.048-1.476-4.014-2.235-5.914-1.424-3.578-2.899-7.278-3.937-11.869l-.406-1.794-1.376,1.22c-2.69,2.383-6.401,4.599-9.994,6.742-1.929,1.152-3.925,2.343-5.73,3.544-.469,.311-.886,.66-1.284,1.021-.27-.465-.562-.923-.914-1.362-1.353-1.687-2.76-3.265-4.121-4.791Zm-44.318,15.387c.595-2.022,1.348-4.186,2.075-6.278,1.193-3.433,2.421-6.965,3.107-10.253,3.34,2.378,6.468,4.061,9.505,5.695,1.863,1.002,3.621,1.949,5.426,3.045,.622,.377,1.144,.829,1.618,1.316-.711,2.899-.052,6.117,1.97,9.523-.034,.181-.049,.349-.088,.533l-3.425,1.327c-4.019,1.123-7.876,2.629-11.535,4.47l-3.577,1.386c-.153-.11-.277-.224-.423-.335-.802-3.88-2.483-6.701-4.962-8.365,.022-.68,.103-1.365,.308-2.064Zm-20.235,18.919c-.211-.646-.369-1.319-.415-2.045-.132-2.105-.166-4.395-.198-6.609-.052-3.634-.106-7.374-.585-10.697,3.958,1.093,7.474,1.604,10.889,2.101,2.09,.304,4.063,.591,6.13,1.003,.714,.142,1.36,.388,1.972,.684,.324,2.968,2.043,5.765,5.107,8.275,.03,.181,.074,.343,.1,.529l-3.115,2.726c-3.147,2.294-6.083,4.855-8.762,7.665l-3.084,2.699c-.182-.051-.339-.116-.515-.17-2.079-3.372-4.622-5.446-7.523-6.161Zm-12.959,22.652c-.419-.536-.798-1.113-1.089-1.778-.844-1.932-1.659-4.072-2.446-6.142-1.293-3.398-2.623-6.893-4.21-9.853,4.09-.326,7.567-1.048,10.945-1.748,2.071-.429,4.024-.836,6.11-1.155,.718-.111,1.408-.101,2.084-.034,1.319,2.681,3.892,4.721,7.631,6.031,.09,.159,.187,.297,.275,.463l-2.01,3.654c-2.19,3.241-4.091,6.687-5.67,10.306l-1.903,3.458c-.188,.015-.356,.007-.539,.017-3.106-2.457-6.208-3.539-9.178-3.219Zm-6.064,24.422c-1.454-1.528-2.951-3.261-4.399-4.936-2.377-2.75-4.821-5.581-7.325-7.82,3.734-1.705,6.756-3.574,9.69-5.388,1.797-1.111,3.493-2.16,5.342-3.173,.642-.352,1.298-.578,1.962-.746,2.159,2.066,5.266,3.119,9.232,3.068,.136,.117,.27,.21,.406,.333l-.59,3.805c-.983,3.867-1.612,7.869-1.857,11.972l-.6,3.868c-.172,.077-.333,.128-.502,.199-3.758-1.245-7.044-1.201-9.726,.115-.577-.358-1.13-.771-1.632-1.297Zm4.288,26.32c-1.887-.938-3.885-2.053-5.816-3.131-3.176-1.773-6.443-3.596-9.563-4.845,2.926-2.88,5.126-5.67,7.263-8.379,1.309-1.658,2.543-3.224,3.933-4.809,.479-.546,1.015-.981,1.576-1.363,1.337,.589,2.797,.889,4.383,.856,1.665-.034,3.459-.414,5.363-1.135,.165,.062,.32,.103,.487,.171l.758,3.84c.413,4.089,1.206,8.062,2.347,11.887l.746,3.777c-.134,.131-.267,.233-.401,.357-3.959,.113-7.031,1.281-9.101,3.437-.665-.14-1.326-.338-1.977-.661Zm6.5,22.314c-3.593-.58-7.287-1.176-10.647-1.282,1.763-3.707,2.877-7.082,3.959-10.359,.662-2.005,1.287-3.9,2.052-5.863,.262-.674,.614-1.264,1.008-1.814,.276,.019,.553,.04,.83,.035,2.721-.056,5.494-1.287,8.224-3.638,.181,.002,.345-.013,.53-.006l2.041,3.375c1.728,3.555,3.771,6.923,6.095,10.074l2.154,3.56c-.082,.17-.173,.312-.257,.476-3.682,1.462-6.17,3.608-7.377,6.342-.672,.095-1.361,.134-2.083,.052-2.092-.236-4.349-.6-6.531-.952Zm20.273,19.697c-3.575,.684-7.251,1.388-10.447,2.437,.39-4.085,.283-7.636,.179-11.085-.064-2.112-.124-4.107-.076-6.215,.016-.731,.148-1.413,.334-2.07,2.87-.837,5.335-3.001,7.273-6.462,.169-.06,.318-.129,.493-.186l3.199,2.574c2.793,2.699,5.834,5.139,9.074,7.301l3.215,2.587c-.019,.187-.055,.352-.078,.534-2.959,2.633-4.563,5.5-4.762,8.48-.6,.321-1.235,.593-1.942,.765-2.047,.494-4.292,.924-6.461,1.339Zm25.775,11.584c-3.123,1.863-6.333,3.78-8.972,5.857-1.03-3.971-2.344-7.269-3.62-10.472-.783-1.965-1.523-3.821-2.199-5.819-.234-.689-.344-1.371-.394-2.05,2.409-1.765,3.971-4.653,4.612-8.563,.141-.116,.26-.234,.407-.35l3.652,1.245c3.722,1.683,7.627,3.026,11.677,3.981l3.487,1.189c.047,.183,.069,.351,.11,.53-1.878,3.486-2.404,6.727-1.573,9.594-.454,.506-.956,.979-1.561,1.382-1.756,1.167-3.725,2.34-5.626,3.476Zm32.29-3.129c-1.251,1.695-2.696,3.469-4.094,5.185-2.298,2.821-4.661,5.721-6.432,8.578-2.331-3.386-4.697-6.04-6.997-8.617-1.404-1.573-2.727-3.059-4.045-4.7-.456-.567-.791-1.171-1.071-1.791,1.659-2.481,2.14-5.73,1.405-9.62,.094-.159,.165-.313,.266-.474l3.819-.079c2.019,.149,4.06,.215,6.124,.172,2.064-.042,4.101-.192,6.112-.424l3.819-.078c.107,.157,.185,.307,.285,.462-.574,3.919,.041,7.145,1.803,9.556-.253,.63-.563,1.245-.994,1.83Zm25.174-8.793c-.595,2.018-1.344,4.175-2.068,6.261-1.196,3.44-2.426,6.978-3.114,10.272-3.348-2.383-6.479-4.068-9.522-5.704-1.858-.999-3.612-1.943-5.411-3.035-.621-.377-1.143-.829-1.617-1.315,.712-2.901,.053-6.118-1.969-9.524,.034-.181,.049-.349,.088-.534l3.435-1.331c4.008-1.12,7.854-2.623,11.504-4.457l3.598-1.394c.153,.11,.277,.224,.424,.335,.802,3.879,2.483,6.701,4.962,8.364-.023,.679-.103,1.364-.309,2.061Zm20.231-18.926c.213,.649,.372,1.324,.417,2.053,.132,2.105,.166,4.396,.198,6.61,.054,3.634,.108,7.374,.587,10.698-3.962-1.095-7.48-1.607-10.897-2.104-2.088-.304-4.059-.59-6.123-1.001-.713-.142-1.359-.388-1.971-.683-.323-2.968-2.043-5.765-5.108-8.275-.03-.182-.074-.346-.101-.533l3.113-2.722c3.141-2.289,6.073-4.846,8.748-7.651l3.103-2.713c.177,.049,.329,.112,.5,.165,2.079,3.379,4.631,5.439,7.533,6.156Zm12.139-22.565c.279-.006,.555-.039,.831-.069,.417,.532,.793,1.105,1.083,1.768,.847,1.938,1.663,4.084,2.452,6.159,1.291,3.392,2.619,6.881,4.204,9.837-4.096,.326-7.577,1.049-10.956,1.75-2.067,.429-4.019,.834-6.099,1.154-.718,.112-1.407,.102-2.082,.036-1.318-2.681-3.891-4.723-7.631-6.032-.091-.161-.187-.299-.276-.467l2.014-3.659c2.185-3.236,4.083-6.675,5.66-10.286l1.91-3.471c.185-.014,.35-.006,.531-.014,2.823,2.236,5.644,3.351,8.362,3.295Zm6.888-24.5c1.45,1.525,2.946,3.254,4.391,4.927,2.378,2.754,4.827,5.586,7.333,7.828-3.736,1.707-6.76,3.576-9.697,5.392-1.793,1.109-3.49,2.158-5.336,3.17-.637,.35-1.288,.576-1.946,.744-2.156-2.071-5.274-3.111-9.238-3.059-.139-.119-.276-.215-.415-.341l.591-3.808c.982-3.862,1.609-7.858,1.855-11.954l.603-3.882c.164-.074,.318-.122,.48-.19,1.932,.643,3.739,.949,5.404,.914,1.588-.032,3.035-.392,4.347-1.037,.576,.359,1.129,.771,1.63,1.297Zm-15.112-2.268c.698,34.004-26.399,62.236-60.402,62.935-34.003,.698-62.236-26.397-62.935-60.402-.698-34.003,26.399-62.236,60.402-62.934,34.003-.699,62.236,26.398,62.935,60.401Zm10.822-24.051c1.892,.938,3.894,2.056,5.829,3.137,3.173,1.769,6.436,3.59,9.554,4.836-2.929,2.884-5.133,5.677-7.272,8.39-1.307,1.655-2.54,3.218-3.926,4.798-.48,.547-1.016,.983-1.578,1.365-2.734-1.205-6.017-1.114-9.723,.286-.173-.064-.336-.109-.511-.179l-.758-3.841c-.413-4.088-1.206-8.06-2.347-11.883l-.746-3.779c.131-.128,.262-.228,.392-.35,3.968-.111,7.03-1.292,9.101-3.445,.668,.14,1.331,.34,1.985,.665Zm-6.481-22.314c3.586,.579,7.276,1.174,10.632,1.28-1.765,3.71-2.881,7.086-3.963,10.365-.661,2.004-1.285,3.896-2.05,5.859-.263,.678-.618,1.269-1.016,1.821-2.981-.199-6.035,1.01-9.038,3.594-.184-.002-.352,.013-.54,.006l-2.045-3.381c-1.723-3.544-3.76-6.903-6.076-10.046l-2.167-3.583c.082-.17,.172-.312,.256-.476,3.683-1.462,6.17-3.608,7.376-6.339,.672-.095,1.361-.134,2.082-.052,2.099,.236,4.361,.6,6.55,.953Zm-20.269-19.704c3.567-.682,7.236-1.384,10.425-2.433-.39,4.086-.283,7.638-.18,11.086,.064,2.112,.124,4.107,.077,6.215-.015,.727-.145,1.405-.329,2.059-2.871,.833-5.325,3.012-7.263,6.468-.174,.061-.327,.132-.506,.191l-3.201-2.576c-2.789-2.695-5.826-5.131-9.061-7.292l-3.227-2.597c.019-.187,.055-.351,.078-.532,2.961-2.633,4.564-5.5,4.764-8.48,.6-.321,1.234-.594,1.942-.765,2.052-.497,4.303-.927,6.482-1.344Zm-25.777-11.59c3.115-1.859,6.318-3.771,8.953-5.844,1.031,3.975,2.346,7.276,3.624,10.483,.781,1.961,1.52,3.813,2.195,5.808,.234,.689,.344,1.372,.395,2.05-2.408,1.765-3.972,4.653-4.614,8.562-.141,.116-.26,.234-.408,.35l-3.657-1.246c-3.723-1.683-7.629-3.027-11.681-3.981l-3.48-1.186c-.046-.183-.068-.349-.109-.528,1.882-3.487,2.409-6.73,1.577-9.599,.454-.506,.957-.979,1.562-1.381,1.762-1.171,3.734-2.348,5.642-3.487Zm-10.74,2.697c.455,.567,.791,1.17,1.07,1.789-1.661,2.481-2.142,5.73-1.409,9.623-.094,.159-.165,.312-.265,.472l-3.819,.079c-2.019-.15-4.06-.215-6.124-.172-2.064,.042-4.101,.191-6.112,.423l-3.819,.079c-.107-.157-.185-.307-.285-.461,.573-3.919-.042-7.145-1.802-9.555,.253-.631,.564-1.247,.995-1.833,1.256-1.705,2.71-3.489,4.114-5.214,2.291-2.81,4.644-5.702,6.411-8.549,2.329,3.385,4.696,6.039,6.995,8.617,1.405,1.574,2.731,3.061,4.049,4.704Z" fill="url(#linear-gradient-14)"/>
  </g>
  <g>
    <path d="M473.828,259.729c12.981,.569,24.005-9.528,24.574-22.507,.569-12.979-9.529-24.003-22.509-24.572-12.98-.569-24.003,9.528-24.572,22.507-.569,12.979,9.527,24.003,22.507,24.572Zm-20.43-24.481c.519-11.834,10.57-21.04,22.404-20.521,11.836,.519,21.042,10.569,20.523,22.404-.519,11.834-10.57,21.04-22.406,20.521-11.834-.519-21.04-10.57-20.521-22.404Z" fill="url(#linear-gradient-15)"/>
    <path d="M440.5,279.338c1.936,1.706,4.339,2.447,5.976,2.852,.903,.236,1.925,.32,3.198,.254,1.026-.054,2.018-.214,2.957-.476,1.741-.451,3.532-1.505,5.024-2.965,.93-.914,1.722-1.996,2.386-3.211-.731,3.355-.219,6.682,1.518,9.527,1.092,1.64,2.581,3.03,4.449,4.171,1.74,.985,3.872,1.6,6.371,1.847,2.635-.022,4.813-.447,6.6-1.259,1.999-.99,3.605-2.245,4.806-3.746,2.042-2.766,2.846-6.111,2.355-9.588,.564,1.328,1.233,2.567,2.113,3.6,1.36,1.585,3.052,2.793,4.771,3.403,.888,.336,1.864,.582,2.879,.725,1.26,.177,2.287,.185,3.223,.024,1.649-.257,4.109-.783,6.224-2.34,.905-.613,1.778-1.333,2.562-2.111,.731-.814,1.349-1.683,1.934-2.706,.615-1.099,.997-1.982,1.244-2.874,.257-1.035,.396-2.04,.422-3.02,.146-3.186-1.137-6.352-3.545-8.914,2.986,1.766,6.229,2.285,9.489,1.472,3.984-.988,7.469-4.232,9.097-8.467,.737-1.987,1.025-4.192,.862-6.564-.335-2.204-1.066-4.17-2.123-5.78-1.932-2.737-4.797-4.511-8.194-5.151,3.44-.339,6.445-1.851,8.587-4.383,1.22-1.542,2.12-3.435,2.628-5.505,.39-2.446,.295-4.666-.262-6.698-1.254-4.375-4.442-7.912-8.326-9.245-1.156-.399-2.327-.622-3.499-.674-2.047-.09-4.098,.365-6.09,1.321,2.629-2.344,4.189-5.392,4.323-8.602,.059-.956,.009-1.969-.151-2.99-.175-.942-.478-1.856-.989-2.994-.498-1.08-1.038-2-1.654-2.822-.753-.896-1.561-1.689-2.443-2.409-1.469-1.297-3.379-2.212-5.978-2.852-.558-.146-1.163-.234-1.844-.263-.418-.018-.866-.015-1.35,.01-1.022,.052-2.016,.213-2.957,.476-1.743,.451-3.535,1.507-5.026,2.964-.968,.954-1.743,2.129-2.421,3.402,.793-3.419,.288-6.817-1.483-9.717-1.092-1.641-2.581-3.033-4.451-4.171-1.742-.985-3.874-1.6-6.368-1.845-2.637,.021-4.817,.446-6.602,1.259-1.994,.987-3.599,2.241-4.804,3.745-2.003,2.714-2.808,5.987-2.374,9.393-.555-1.268-1.249-2.414-2.094-3.405-1.359-1.585-3.052-2.793-4.769-3.402-.893-.337-1.87-.583-2.88-.725-.478-.068-.924-.11-1.342-.128-.685-.03-1.3,.004-1.883,.104-2.628,.408-4.61,1.152-6.224,2.34-.898,.611-1.771,1.329-2.56,2.111-.733,.815-1.351,1.684-1.936,2.707-.617,1.102-.999,1.985-1.244,2.876-.256,1.028-.396,2.034-.423,3.018-.146,3.19,1.142,6.362,3.558,8.927-1.902-1.127-3.906-1.761-5.956-1.85-1.173-.052-2.359,.069-3.547,.366-3.983,.987-7.467,4.232-9.093,8.467-.739,1.981-1.029,4.186-.864,6.564,.336,2.205,1.066,4.17,2.125,5.78,1.931,2.738,4.795,4.511,8.192,5.15-3.44,.339-6.445,1.851-8.588,4.383-1.22,1.543-2.12,3.436-2.628,5.506-.39,2.45-.296,4.672,.263,6.699,1.251,4.371,4.439,7.909,8.322,9.243,3.173,1.093,6.454,.86,9.585-.638-2.624,2.343-4.182,5.388-4.316,8.593-.059,.961-.007,1.975,.153,2.993,.171,.937,.474,1.85,.987,2.992,.499,1.08,1.038,2,1.654,2.822,.76,.903,1.569,1.695,2.443,2.409Zm41.434,5.573c-.96,1.197-2.3,2.24-3.959,3.061-1.452,.659-3.314,1.015-5.496,1.039-2.045-.21-3.869-.727-5.291-1.53-1.543-.943-2.787-2.1-3.665-3.416-1.665-2.73-1.95-5.937-.803-9.24,3.294,1.036,6.754,1.709,10.364,1.867s7.115-.209,10.487-.953c.853,3.39,.289,6.56-1.637,9.171Zm27.246-13.552c-.023,.836-.14,1.674-.347,2.514-.187,.673-.503,1.397-1.017,2.316-.491,.857-1.03,1.617-1.596,2.25-.636,.628-1.397,1.254-2.219,1.812-1.333,.98-2.99,1.59-5.253,1.942-.709,.121-1.506,.109-2.523-.031-.844-.119-1.652-.324-2.401-.607-1.36-.483-2.702-1.449-3.798-2.728-.994-1.167-1.753-2.6-2.265-4.246,6.752-2.278,12.746-6.264,17.404-11.505,2.69,2.261,4.154,5.273,4.016,8.282Zm14.183-26.854c.855,1.301,1.461,2.946,1.735,4.725,.129,1.943-.113,3.82-.728,5.482-1.354,3.522-4.22,6.219-7.478,7.026-3.107,.775-6.225,.056-9.028-2.074,3.998-5.602,6.586-12.272,7.294-19.532,3.466,.235,6.379,1.784,8.205,4.372Zm-4.397-30.089c3.174,1.089,5.795,4.027,6.839,7.668,.464,1.697,.54,3.589,.222,5.61-.41,1.652-1.158,3.236-2.147,4.487-2.022,2.389-5.059,3.677-8.532,3.607-.07-7.294-2.064-14.165-5.556-20.095,2.978-1.876,6.148-2.319,9.174-1.276Zm-25.265-19.379c1.2-1.174,2.621-2.019,3.997-2.375,.798-.223,1.621-.355,2.47-.4,1.026-.053,1.817,.008,2.499,.186,2.237,.551,3.834,1.303,5.043,2.37,.805,.658,1.51,1.349,2.128,2.082,.467,.627,.938,1.431,1.357,2.339,.426,.95,.678,1.698,.811,2.418,.127,.822,.169,1.668,.121,2.479-.127,3.033-1.849,5.905-4.727,7.922-4.182-5.629-9.803-10.124-16.33-12.985,.654-1.596,1.535-2.957,2.63-4.036Zm-25.916-7.57c.963-1.199,2.305-2.241,3.957-3.061,1.454-.66,3.314-1.015,5.498-1.039,2.043,.209,3.867,.726,5.291,1.53,1.543,.942,2.787,2.096,3.665,3.414,1.665,2.73,1.95,5.937,.803,9.24-3.294-1.036-6.754-1.709-10.364-1.867-3.61-.158-7.115,.209-10.487,.953-.853-3.391-.289-6.561,1.637-9.17Zm-27.246,13.551c.024-.838,.14-1.675,.349-2.512,.185-.675,.501-1.399,1.015-2.318,.491-.857,1.03-1.617,1.596-2.25,.64-.63,1.403-1.259,2.219-1.814,1.336-.981,2.992-1.589,5.252-1.941,.714-.121,1.514-.109,2.527,.031,.838,.118,1.648,.323,2.401,.607,1.361,.483,2.7,1.448,3.796,2.727,.995,1.164,1.752,2.597,2.265,4.247-6.752,2.278-12.746,6.264-17.405,11.506-2.688-2.264-4.153-5.275-4.016-8.283Zm-14.183,26.854c-.855-1.301-1.461-2.945-1.735-4.724-.129-1.947,.113-3.825,.73-5.482,1.352-3.523,4.219-6.221,7.474-7.027,3.111-.777,6.229-.054,9.03,2.074-3.998,5.602-6.585,12.271-7.294,19.531-3.466-.234-6.379-1.783-8.205-4.371Zm4.395,30.089c-3.174-1.09-5.794-4.028-6.835-7.668-.466-1.693-.542-3.584-.224-5.608,.41-1.652,1.158-3.236,2.149-4.489,2.02-2.388,5.057-3.675,8.53-3.606,.07,7.294,2.064,14.166,5.556,20.096-2.977,1.875-6.148,2.32-9.175,1.276Zm5.682-23.458c.929-21.189,18.924-37.672,40.112-36.743,21.188,.929,37.671,18.924,36.741,40.113-.929,21.188-18.924,37.67-40.112,36.741-21.188-.929-37.671-18.924-36.741-40.112Zm2.09,38.636c-.427-.95-.678-1.698-.808-2.415-.13-.825-.173-1.669-.124-2.483,.127-3.03,1.851-5.902,4.726-7.923,4.182,5.629,9.804,10.125,16.33,12.985-.656,1.599-1.535,2.96-2.628,4.034-1.204,1.176-2.625,2.022-3.997,2.378-.794,.222-1.619,.355-2.472,.4-1.018,.05-1.815-.007-2.499-.186-2.239-.555-3.838-1.307-5.044-2.37-.8-.652-1.503-1.343-2.13-2.082-.465-.626-.936-1.431-1.355-2.338Z" fill="url(#linear-gradient-16)"/>
    <path d="M500.173,224.856c.46,1.048,1.7,1.51,2.731,1.031,1.047-.458,1.53-1.698,1.051-2.749-.335-.732-1.055-1.191-1.809-1.224-.31-.013-.624,.05-.939,.192-1.05,.478-1.511,1.699-1.034,2.749Z" fill="url(#linear-gradient-17)"/>
    <path d="M486.006,208.456c-.512,1.045-.081,2.286,.966,2.778v.02c1.026,.491,2.267,.06,2.778-.965,.491-1.045,.06-2.288-.966-2.779-.265-.128-.535-.198-.825-.211-.794-.035-1.59,.396-1.954,1.157Z" fill="url(#linear-gradient-18)"/>
    <path d="M479.312,206.648c-.242,1.115,.465,2.233,1.58,2.476,1.114,.262,2.233-.446,2.476-1.58,.263-1.114-.446-2.232-1.58-2.476-.115-.024-.231-.048-.346-.053-1.008-.044-1.91,.634-2.13,1.634Z" fill="url(#linear-gradient-19)"/>
    <path d="M496.863,219.334c.699,.905,2.011,1.078,2.915,.38,.903-.698,1.078-2.01,.38-2.913-.385-.522-.954-.799-1.556-.826-.465-.02-.957,.132-1.358,.445-.905,.698-1.079,1.991-.382,2.914Z" fill="url(#linear-gradient-20)"/>
    <path d="M492.39,214.714c.88,.717,2.186,.581,2.924-.299,.718-.9,.582-2.206-.3-2.924-.354-.306-.795-.462-1.22-.481-.639-.028-1.272,.236-1.704,.78-.717,.88-.6,2.185,.3,2.924Z" fill="url(#linear-gradient-21)"/>
    <path d="M449.257,225.514c.453-1.047-.056-2.273-1.123-2.707-.229-.108-.46-.157-.692-.167-.853-.037-1.669,.451-2.016,1.289-.435,1.049,.056,2.274,1.123,2.708,1.047,.454,2.273-.056,2.708-1.123Z" fill="url(#linear-gradient-22)"/>
    <path d="M452.414,219.907c.681-.921,.467-2.211-.455-2.892-.359-.248-.741-.381-1.127-.398-.679-.03-1.352,.271-1.785,.853-.682,.94-.466,2.23,.454,2.911,.941,.663,2.231,.466,2.913-.474Z" fill="url(#linear-gradient-23)"/>
    <path d="M456.981,212.248c-.388-.444-.919-.7-1.481-.724-.505-.022-1.017,.148-1.439,.5-.867,.757-.965,2.073-.226,2.94,.758,.867,2.073,.964,2.939,.226,.869-.758,.964-2.073,.207-2.941Z" fill="url(#linear-gradient-24)"/>
    <path d="M468.114,209.301c1.119-.281,1.79-1.416,1.51-2.534-.233-.903-1.021-1.52-1.931-1.56-.193-.008-.389,.003-.584,.052-1.119,.281-1.79,1.416-1.528,2.514,.281,1.118,1.416,1.809,2.533,1.528Z" fill="url(#linear-gradient-25)"/>
    <path d="M474.497,208.475c1.146-.028,2.061-.958,2.052-2.104-.029-1.107-.901-2.019-2.005-2.068-.019,0-.057-.002-.097-.004-1.165,.027-2.079,.957-2.053,2.122,.009,1.145,.958,2.06,2.103,2.053Z" fill="url(#linear-gradient-26)"/>
    <path d="M462.995,208.766c-.359-.675-1.041-1.074-1.777-1.106-.348-.015-.699,.047-1.037,.226-1.014,.519-1.418,1.781-.881,2.795,.518,1.032,1.782,1.417,2.794,.899,1.013-.538,1.418-1.782,.901-2.814Z" fill="url(#linear-gradient-27)"/>
    <path d="M484.434,236.608c.232-5.287-3.866-9.762-9.154-9.994-5.287-.232-9.761,3.866-9.993,9.154-.232,5.288,3.866,9.761,9.153,9.993,5.287,.232,9.761-3.866,9.993-9.153Zm-17.44-.765c.19-4.338,3.874-7.712,8.212-7.522,4.338,.19,7.712,3.874,7.522,8.212-.19,4.338-3.874,7.712-8.212,7.521-4.337-.19-7.712-3.874-7.522-8.212Z" fill="url(#linear-gradient-28)"/>
    <path d="M462.778,317.961c2.374,3.034,4.829,6.171,7.118,10.289l.892,1.607,.978-1.556c1.911-3.04,4.851-6.208,7.692-9.272,1.532-1.65,3.113-3.356,4.511-5.018,.362-.431,.666-.882,.945-1.34,.389,.37,.798,.728,1.26,1.05,1.776,1.242,3.575,2.364,5.313,3.45,3.265,2.037,6.639,4.144,10.194,7.224l1.39,1.204,.386-1.797c.757-3.519,2.439-7.509,4.065-11.369,.871-2.064,1.771-4.2,2.513-6.23,.193-.529,.323-1.056,.43-1.583,.492,.215,.999,.411,1.543,.556,2.09,.558,4.162,.997,6.164,1.421,3.769,.798,7.663,1.624,12.062,3.305l1.717,.656-.252-1.821c-.494-3.565-.278-7.891-.069-12.075,.111-2.237,.228-4.551,.232-6.713,0-.564-.058-1.105-.138-1.637,.536,.034,1.08,.046,1.641-.003,2.158-.191,4.254-.488,6.283-.774,3.81-.538,7.752-1.095,12.457-1.019l1.837,.029-.857-1.625c-1.684-3.183-2.96-7.321-4.194-11.324-.66-2.14-1.344-4.354-2.079-6.386-.191-.527-.42-1.022-.676-1.493,.512-.151,1.023-.325,1.53-.562,1.96-.916,3.829-1.911,5.635-2.873,3.398-1.81,6.911-3.681,11.358-5.219l1.738-.6-1.364-1.233c-2.667-2.416-5.283-5.87-7.812-9.209-1.353-1.786-2.75-3.632-4.137-5.291-.363-.434-.768-.793-1.173-1.149,.439-.322,.867-.668,1.271-1.072,1.528-1.532,2.943-3.106,4.312-4.628,2.574-2.864,5.236-5.824,8.89-8.792l1.427-1.159-1.702-.693c-3.335-1.357-6.977-3.709-10.497-5.982-1.88-1.214-3.823-2.469-5.691-3.553-.487-.282-.983-.505-1.484-.701,.297-.447,.578-.911,.815-1.421,.912-1.961,1.704-3.924,2.469-5.822,1.44-3.572,2.928-7.265,5.347-11.304l.945-1.576-1.837-.069c-3.586-.126-7.827-1.1-11.912-2.032-2.181-.497-4.436-1.012-6.561-1.391-.485-.086-.964-.14-1.437-.161-.066-.003-.129,.009-.196,.007,.126-.52,.231-1.052,.279-1.611,.188-2.157,.259-4.274,.33-6.321,.131-3.847,.267-7.825,1.16-12.446l.348-1.804-1.749,.563c-3.432,1.105-7.733,1.644-11.893,2.166-2.218,.278-4.513,.565-6.638,.935-.556,.097-1.079,.249-1.589,.42-.06-.534-.144-1.071-.29-1.615-.56-2.092-1.217-4.108-1.851-6.057-1.191-3.659-2.422-7.442-3.164-12.088l-.29-1.814-1.452,1.128c-2.843,2.209-6.697,4.185-10.424,6.096-1.993,1.022-4.056,2.08-5.931,3.157-.488,.281-.927,.601-1.346,.937-.239-.482-.502-.958-.825-1.418-1.242-1.769-2.543-3.433-3.801-5.041-2.374-3.034-4.83-6.173-7.12-10.292l-.892-1.608-.978,1.557c-1.917,3.049-4.863,6.227-7.714,9.299-1.524,1.641-3.097,3.338-4.489,4.989-.362,.431-.665,.882-.945,1.34-.389-.371-.798-.728-1.259-1.05-1.773-1.238-3.566-2.357-5.3-3.44-3.269-2.04-6.649-4.148-10.209-7.234l-1.39-1.204-.386,1.797c-.759,3.524-2.443,7.521-4.074,11.387-.867,2.059-1.764,4.188-2.505,6.212-.193,.529-.324,1.057-.43,1.583-.492-.215-.999-.411-1.542-.556-2.089-.557-4.156-.996-6.156-1.419-3.769-.798-7.667-1.623-12.068-3.306l-1.715-.656,.25,1.821c.492,3.566,.276,7.891,.068,12.075-.111,2.238-.226,4.552-.23,6.713,0,.562,.057,1.1,.137,1.63-.065-.004-.125-.021-.19-.024-.473-.021-.957-.01-1.451,.034-2.152,.191-4.246,.487-6.271,.772-3.814,.538-7.758,1.095-12.468,1.02l-1.837-.03,.859,1.626c1.68,3.179,2.954,7.312,4.187,11.309,.662,2.146,1.345,4.366,2.084,6.403,.191,.528,.431,1.015,.687,1.486-.515,.152-1.029,.33-1.539,.569-1.958,.916-3.825,1.909-5.63,2.871-3.4,1.81-6.916,3.682-11.367,5.222l-1.738,.601,1.363,1.233c2.671,2.419,5.29,5.875,7.821,9.217,1.351,1.782,2.747,3.626,4.129,5.281,.366,.437,.763,.82,1.173,1.179-.435,.32-.87,.643-1.27,1.043-1.524,1.529-2.937,3.1-4.302,4.619-2.578,2.865-5.242,5.829-8.902,8.801l-1.427,1.159,1.702,.693c3.335,1.355,6.969,3.704,10.488,5.974,1.884,1.217,3.832,2.475,5.704,3.559,.483,.28,.976,.496,1.471,.692-.296,.446-.567,.92-.804,1.43-.912,1.961-1.701,3.922-2.467,5.818-1.442,3.573-2.93,7.267-5.352,11.309l-.945,1.577,1.837,.069c.051,0,.102,.003,.155,.005,3.562,.157,7.72,1.104,11.743,2.023,2.186,.499,4.447,1.013,6.576,1.394,.555,.098,1.097,.134,1.635,.146-.126,.523-.231,1.057-.279,1.619-.187,2.156-.259,4.272-.33,6.318-.131,3.847-.268,7.826-1.16,12.448l-.349,1.805,1.75-.564c3.424-1.103,7.719-1.641,11.872-2.163,2.226-.279,4.526-.567,6.658-.939,.555-.097,1.078-.248,1.588-.42,.06,.535,.144,1.071,.29,1.616,.56,2.089,1.215,4.1,1.85,6.045,1.191,3.662,2.425,7.449,3.165,12.098l.29,1.817,1.452-1.129c2.837-2.205,6.684-4.178,10.407-6.085,1.999-1.026,4.068-2.085,5.946-3.168,.488-.281,.927-.601,1.347-.937,.239,.481,.501,.957,.824,1.418,1.242,1.771,2.545,3.436,3.804,5.046Zm45.216-12.504c-.723,1.98-1.614,4.091-2.475,6.132-1.411,3.349-2.864,6.795-3.76,10.031-3.18-2.588-6.193-4.468-9.119-6.294-1.795-1.12-3.488-2.178-5.219-3.387-.597-.416-1.088-.901-1.53-1.417,.896-2.848,.445-6.101-1.353-9.63,.045-.178,.071-.345,.122-.527l3.503-1.103c4.083-.862,8.029-2.117,11.799-3.719l3.659-1.153c.146,.12,.262,.242,.401,.362,.551,3.923,2.047,6.847,4.413,8.667-.066,.677-.191,1.356-.44,2.04Zm21.41-17.579c.169,.659,.284,1.34,.283,2.067-.004,2.109-.117,4.396-.227,6.608-.182,3.63-.368,7.365-.104,10.712-3.879-1.345-7.355-2.082-10.732-2.797-2.066-.437-4.017-.851-6.053-1.395-.703-.188-1.332-.475-1.924-.809-.132-2.982-1.668-5.885-4.564-8.586-.019-.183-.052-.347-.066-.535l3.284-2.52c3.288-2.086,6.383-4.454,9.237-7.086l3.252-2.495c.179,.062,.331,.137,.503,.203,1.858,3.499,4.262,5.732,7.111,6.632Zm14.389-21.771c.384,.561,.725,1.162,.973,1.845,.718,1.983,1.394,4.17,2.046,6.286,1.072,3.474,2.174,7.047,3.567,10.104-4.102,.062-7.619,.559-11.035,1.041-2.094,.295-4.07,.575-6.172,.76-.724,.065-1.412,.01-2.082-.101-1.144-2.76-3.581-4.962-7.228-6.51-.08-.165-.167-.309-.245-.48l2.241-3.517c2.394-3.093,4.513-6.41,6.321-9.92l2.121-3.329c.188-.003,.356,.016,.539,.018,2.941,2.652,5.967,3.931,8.952,3.802Zm7.622-23.982c1.353,1.618,2.736,3.444,4.072,5.209,2.195,2.897,4.452,5.879,6.807,8.275-3.836,1.462-6.972,3.132-10.017,4.754-1.865,.993-3.625,1.931-5.535,2.823-.663,.31-1.333,.494-2.006,.618-2.022-2.201-5.055-3.451-9.015-3.656-.128-.125-.256-.227-.384-.358l.834-3.759c1.23-3.796,2.115-7.749,2.623-11.828l.848-3.821c.177-.066,.34-.106,.514-.167,3.671,1.484,6.953,1.652,9.713,.511,.553,.395,1.078,.842,1.545,1.399Zm-2.587-26.541c1.822,1.057,3.745,2.298,5.603,3.499,3.056,1.973,6.198,4.003,9.232,5.45-3.105,2.686-5.48,5.329-7.787,7.895-1.413,1.57-2.746,3.054-4.235,4.546-.514,.514-1.076,.914-1.661,1.259-1.296-.674-2.734-1.067-4.318-1.136-1.664-.073-3.479,.19-5.425,.788-.16-.072-.313-.124-.475-.202l-.51-3.881c-.149-4.108-.685-8.123-1.578-12.013l-.501-3.817c.142-.122,.281-.215,.423-.331,3.958,.142,7.099-.826,9.304-2.844,.655,.182,1.301,.423,1.93,.787Zm-5.051-22.686c3.549,.809,7.196,1.643,10.543,1.964-1.998,3.585-3.327,6.883-4.618,10.083-.789,1.959-1.535,3.809-2.425,5.719-.305,.656-.694,1.221-1.123,1.745-.275-.036-.549-.076-.826-.088-2.719-.119-5.566,.931-8.441,3.101-.18-.013-.345-.01-.529-.028l-1.82-3.499c-1.496-3.658-3.318-7.152-5.434-10.445l-1.92-3.691c.093-.165,.192-.301,.287-.459,3.769-1.222,6.389-3.204,7.769-5.854,.677-.052,1.367-.046,2.082,.082,2.072,.37,4.302,.879,6.456,1.37Zm-18.964-20.96c3.611-.453,7.326-.918,10.583-1.76-.651,4.051-.773,7.602-.892,11.05-.072,2.112-.14,4.107-.324,6.207-.063,.729-.238,1.401-.466,2.045-2.918,.65-5.517,2.651-7.673,5.981-.173,.049-.325,.108-.504,.154l-3.027-2.775c-2.614-2.873-5.492-5.503-8.586-7.87l-3.042-2.788c.031-.186,.078-.348,.112-.528,3.123-2.437,4.907-5.195,5.298-8.156,.619-.282,1.27-.513,1.987-.638,2.074-.361,4.342-.646,6.534-.921Zm-24.976-13.218c3.236-1.658,6.563-3.365,9.33-5.267,.773,4.029,1.872,7.405,2.939,10.684,.655,2.011,1.275,3.911,1.82,5.949,.189,.703,.255,1.391,.262,2.071-2.518,1.606-4.262,4.388-5.153,8.248-.149,.107-.274,.217-.429,.323l-3.565-1.478c-3.606-1.919-7.416-3.51-11.397-4.724l-3.403-1.41c-.035-.186-.046-.355-.076-.536,2.099-3.358,2.832-6.558,2.187-9.473,.485-.476,1.017-.915,1.647-1.279,1.828-1.051,3.867-2.096,5.837-3.107Zm-32.425,1.046c1.357-1.611,2.913-3.289,4.419-4.91,2.475-2.667,5.019-5.41,6.97-8.146,2.108,3.529,4.299,6.33,6.428,9.05,1.299,1.66,2.525,3.229,3.734,4.951,.418,.595,.714,1.219,.954,1.856-1.816,2.369-2.504,5.58-2.021,9.51-.104,.153-.185,.302-.296,.456l-3.816-.167c-2.005-.279-4.038-.476-6.1-.566-2.062-.091-4.104-.073-6.126,.03l-3.816-.167c-.097-.163-.165-.318-.255-.48,.825-3.874,.419-7.133-1.184-9.652,.293-.612,.642-1.206,1.11-1.762Zm-25.688,7.156c.723-1.975,1.61-4.08,2.467-6.115,1.415-3.356,2.87-6.808,3.769-10.05,3.188,2.594,6.204,4.477,9.135,6.305,1.79,1.116,3.479,2.171,5.204,3.376,.596,.416,1.087,.9,1.529,1.416-.897,2.849-.446,6.102,1.353,9.631-.045,.179-.071,.345-.122,.527l-3.513,1.107c-4.072,.86-8.006,2.112-11.767,3.708l-3.681,1.16c-.146-.12-.262-.242-.402-.362-.551-3.923-2.047-6.847-4.413-8.666,.066-.676,.191-1.355,.441-2.037Zm-21.407,17.586c-.171-.661-.286-1.345-.285-2.076,.003-2.109,.117-4.397,.227-6.609,.18-3.63,.367-7.365,.102-10.714,3.883,1.348,7.361,2.085,10.739,2.801,2.064,.437,4.013,.85,6.046,1.393,.703,.188,1.331,.475,1.923,.809,.131,2.982,1.668,5.885,4.565,8.586,.018,.184,.052,.35,.066,.538l-3.281,2.516c-3.282,2.082-6.372,4.445-9.222,7.072l-3.271,2.508c-.173-.061-.321-.133-.488-.197-1.857-3.505-4.272-5.726-7.121-6.628Zm-13.565,21.737c-.278-.012-.556,.003-.834,.015-.382-.557-.721-1.154-.967-1.834-.721-1.989-1.397-4.183-2.051-6.304-1.07-3.468-2.171-7.036-3.563-10.087,4.108-.062,7.628-.559,11.046-1.041,2.09-.295,4.064-.574,6.161-.759,.724-.066,1.411-.012,2.08,.098,1.142,2.76,3.58,4.964,7.228,6.511,.08,.167,.168,.311,.246,.483l-2.245,3.522c-2.389,3.088-4.504,6.398-6.31,9.901l-2.129,3.341c-.185,.002-.35-.017-.531-.02-2.674-2.413-5.416-3.707-8.133-3.826Zm-8.45,24.007c-1.349-1.615-2.73-3.436-4.065-5.199-2.196-2.901-4.457-5.885-6.814-8.284,3.838-1.463,6.976-3.134,10.024-4.757,1.861-.992,3.621-1.929,5.529-2.82,.658-.308,1.322-.492,1.99-.617,2.019,2.205,5.063,3.444,9.022,3.646,.131,.128,.262,.232,.393,.367l-.835,3.762c-1.228,3.791-2.112,7.738-2.62,11.81l-.851,3.835c-.169,.063-.325,.101-.491,.159-1.887-.766-3.67-1.187-5.334-1.26-1.587-.07-3.054,.196-4.405,.755-.552-.395-1.077-.842-1.543-1.399Zm14.935,3.235c1.49-33.978,30.347-60.41,64.325-58.919,33.978,1.49,60.409,30.346,58.919,64.325-1.49,33.977-30.347,60.409-64.324,58.918-33.978-1.49-60.41-30.346-58.92-64.324Zm-12.346,23.305c-1.828-1.058-3.754-2.302-5.615-3.505-3.052-1.969-6.191-3.996-9.223-5.441,3.109-2.69,5.488-5.336,7.797-7.905,1.41-1.567,2.742-3.048,4.226-4.536,.514-.515,1.077-.915,1.663-1.261,2.651,1.378,5.933,1.499,9.721,.34,.168,.075,.328,.13,.499,.212l.51,3.881c.15,4.106,.685,8.121,1.578,12.01l.502,3.819c-.139,.12-.276,.21-.414,.324-3.967-.144-7.098,.837-9.304,2.853-.657-.183-1.306-.424-1.938-.791Zm5.032,22.685c-3.541-.808-7.185-1.639-10.528-1.961,2-3.589,3.331-6.886,4.622-10.089,.789-1.957,1.533-3.805,2.423-5.715,.306-.659,.699-1.227,1.131-1.752,2.962,.39,6.087-.62,9.251-3.005,.183,.014,.352,.01,.54,.028l1.823,3.506c1.492,3.648,3.308,7.131,5.417,10.416l1.932,3.715c-.092,.165-.192,.3-.286,.458-3.769,1.222-6.389,3.204-7.769,5.852-.677,.052-1.367,.046-2.081-.082-2.08-.37-4.313-.879-6.475-1.372Zm18.96,20.967c-3.603,.452-7.31,.916-10.56,1.757,.652-4.053,.773-7.604,.892-11.052,.072-2.111,.14-4.106,.323-6.207,.062-.725,.235-1.393,.461-2.034,2.919-.646,5.508-2.663,7.664-5.987,.177-.05,.334-.111,.518-.158l3.028,2.777c2.61,2.869,5.484,5.495,8.573,7.859l3.053,2.799c-.031,.185-.078,.346-.112,.526-3.124,2.437-4.909,5.195-5.3,8.156-.619,.281-1.27,.513-1.987,.638-2.08,.364-4.354,.649-6.555,.924Zm24.978,13.224c-3.228,1.654-6.548,3.357-9.311,5.256-.773-4.033-1.873-7.412-2.943-10.694-.653-2.007-1.271-3.903-1.817-5.937-.19-.703-.255-1.391-.262-2.071,2.517-1.606,4.263-4.388,5.155-8.247,.149-.107,.274-.217,.429-.323l3.569,1.479c3.607,1.919,7.419,3.511,11.401,4.724l3.396,1.408c.035,.185,.045,.353,.075,.534-2.102,3.359-2.837,6.561-2.191,9.478-.485,.476-1.018,.916-1.648,1.278-1.834,1.055-3.877,2.103-5.855,3.117Zm10.891-2.001c-.418-.595-.714-1.218-.953-1.854,1.817-2.369,2.506-5.58,2.025-9.512,.104-.152,.185-.3,.295-.454l3.816,.167c2.005,.279,4.038,.476,6.1,.566,2.062,.091,4.104,.073,6.126-.029l3.816,.167c.097,.163,.164,.318,.255,.479-.823,3.874-.418,7.133,1.184,9.652-.294,.613-.643,1.208-1.111,1.765-1.363,1.621-2.929,3.308-4.441,4.938-2.467,2.657-5.001,5.392-6.948,8.119-2.106-3.528-4.298-6.328-6.426-9.049-1.301-1.662-2.529-3.23-3.738-4.954Z" fill="url(#linear-gradient-29)"/>
  </g>
  <path d="M-52.418,136.952l-1.461-.255c2.583-14.709,13.815-28.335,30.043-36.448,14.603-7.303,31.182-9.709,46.912-11.548l4.307-.499c14.36-1.646,29.206-3.35,42.866-8.416,12.424-4.61,22.024-11.577,27.765-20.148,6.826-10.194,7.904-23.334,2.684-32.697-2.187-3.92-5.758-7.23-9.97-9.353-.004,.048-.008,.097-.011,.147-.62,8.165-3.304,14.454-7.759,18.185-2.958,2.479-7.224,3.681-11.127,3.134-3.178-.442-5.816-1.994-7.431-4.367-1.638-2.411-2.11-5.358-1.364-8.519,.982-4.148,3.943-8.04,7.73-10.157,4.653-2.602,10.362-3.145,16.066-1.532,.856,.244,1.7,.531,2.525,.864,.618-21.918-13.741-43.992-34.174-52.024l.541-1.379c21.18,8.324,36.009,31.329,35.095,54.043,4.722,2.239,8.747,5.883,11.174,10.236,5.487,9.836,4.384,23.599-2.746,34.247-5.914,8.832-15.762,15.994-28.479,20.712-13.83,5.13-28.769,6.842-43.216,8.499l-4.301,.497c-15.6,1.826-32.035,4.208-46.421,11.401-15.811,7.904-26.743,21.13-29.247,35.377ZM80.427,15.051c-3.207,0-6.266,.759-8.94,2.255-3.383,1.892-6.134,5.505-7.008,9.203-.452,1.915-.62,4.743,1.148,7.344,1.374,2.023,3.65,3.348,6.407,3.731,3.511,.503,7.325-.585,9.968-2.8,5.234-4.384,6.822-11.751,7.234-17.161,.017-.236,.035-.469,.048-.705-.929-.396-1.884-.734-2.858-1.01-2.021-.572-4.038-.856-5.999-.856Z" fill="url(#linear-gradient-30)"/>
  <g>
    <path d="M354.124,194.587c-.338,.199-.559,.392-.82,.205-.686-.492-.45-.421-1.167-.226-.593-.411-.603-.476-.858-.427-.349,.067-.593-.049-.767-.346-.162-.276-.313-.553-.361-.882-.062-.418-.612-.874-.064-1.343,.407-.349,.517-.177,.803-.633,1.107-1.768,2.259-2.233,2.864-4.433,.09-.328,.253-.792,.254-.831,.011-.507,.348-1.936,.249-2.25-.118-.374,.017-1.127-.008-1.215-.147-.527,.093-.744-.197-1.676-2.223-7.142-2.665-11.739-2.208-17.364,.016-.197,.123-.492,.175-1.115,.072-.857,.14-.498,.172-.939,.275-3.697-.08-6.18,.028-8.171,.019-.357,.07-.809,.052-.872-.149-.516,.035-.886-.046-1.344-.303-1.714-.56-3.082-.692-3.815-.739-4.092-.099-1.71-1.16-6.282-1.693-7.292,.119-5.754-1.933-6.425-.526-.172-.435-.477-.946-.594-.743-.17-1.255-.676-2.122-1.472-3.251-2.988-4.502-6.253-4.928-6.666-.384-.372,.14-.63,3.261-9.831,.505-1.488,.896-2.62,1.708-4.1,1.156-2.106,1.595-3.619,3.758-3.393,.768,.08,1.176-.028,2.365,.339,.083,.025,.618,.164,.723,.136,.838-.224,1.351-.226,1.882-1.238,.195-.371,.458-1.135,.393-1.505-.184-1.038-.072-1.072-.578-1.295-.725-.321-.943-1.022-1.373-1.952-.389-.84-.116-.991-.439-1.303-.353-.341-.568-.909-.368-1.703,.113-.449,.498-.234,.537-.692,.226-2.605,.105-3.523,1.355-4.411,.715-.508,.69-.351,1.362-1.078,.316-.342-.2-.768,.641-1.354,.25-.175,.521-.32,.78-.482,.479-.3,1.871-.39,2.334,1.237,.299,.031,.49-.025,.593,.305,.106,.338-.01,.439,.255,.408,.229-.027,.428,.009,.597,.19,.073,.078,.196,.108,.307,.166-.031,.188-.202,.161-.371,.198,1.634,1.818,.67,2.057,1.238,5.172,.549,.478,.393,1.17,.192,1.886-.216,.769-.55,.669-.726,1.326-.214,.802-.676,1.646-1.429,1.999-.386,.181-.578,.215-.611,.983-.043,.996,.086,2.318,.576,3.187,1.381,2.448,4.384-1.298,13.78-4.418,5.072-1.685,5.728-2.119,7.683-3.004,3.947-1.788,2.998-.854,3.84-4.273,.253-1.029,.908-1.565,1.623-2.27,.938-.924-.691-3.691-1.124-4.562-.394-.792-1.029-.618-.981-1.604,.024-.485,.308-.599,.603-.741,.58,.327,.72,.595,1.169,1.022,.468,.445,1.465,1.234,2.186,1.875,.713,.634,1.088,1.404,1.846,2.265,.899,1.021,1.554,.538,2.45,1.338,.422,.377,.536,1.105,.518,1.431-.046,.839-.87,1.638-1.617,2.303-4.226,3.762-1.328,1.126-6.043,7.876-5.081,7.273-5.318,7.11-6.798,9.214-2.84,4.036-4.476,11.56-9.473,17.554-.902,1.082-1.209,1.197-2.089,2.049-.471,.456-.169,.339-1.424,1.472-.291,.263-1.428,1.321-1.658,1.675-2.3,3.546-2.527,7.792-2.936,9.517-1.56,6.575-1.37,6.024-1.654,6.495-.271,.449-.24,.645-.307,1.609-.05,.723-.118,.365-.173,.983-.781,8.803-.927,14.034-1.358,18.247-.078,.759-.104,.311-.212,1.466-.13,1.381-.292,1.258-.198,1.724,.115,.568-.088,1.385,.037,1.825,.079,.277-.413,2.041,.661,4.105,1.3,2.5,.986,3.001-.352,5.846-.504,1.071-.181,1.489-.468,2.29-.199,.556,.585,2.745-.659,3.125-1.484,.454-1.926-.274-2.153-.513Zm7.423-67.945c.394-.252,.303-.401,1.304-.818,2.501-1.042-.296,3.562,8.683-10.325,1.399-2.164,1.065-2.636,4.927-6.295,.234-.222,5.438-4.895,4.885-5.194-.177-.096-.972,.651-2.238,1.118-2.419,.891-6.531,3.13-8.41,4.154-2.954,1.611-3.862,2.398-6.567,4.82-.719,.644-1.079,1.196-1.744,2.639-2.915,6.33-3.147,7.383-2.52,8.209,.476,.627,.994,1.218,1.68,1.691Zm-12.962,4.071c.538-.749,.979-2.985,.986-3.004,.131-.35,.183-2.233-.276-3.442-1.057-2.784-1.753-4.132-2.38-6.244-.024-.082-.065-.159-.103-.249-.298,.157-1.48,4.352-1.508,4.456-.769,2.859-1.18,2.783-.933,3.304,.764,1.612,1.714,2.757,1.969,2.976,1.06,.912,.641,.92,2.245,2.203Z" fill="url(#linear-gradient-31)" opacity=".3"/>
    <path d="M145.003,116.573c-.771,.173-.215-.359-.476-.669-.071,.033-.151,.061-.22,.106-.328,.216-1.076,.263-1.078-.143-.003-.627,.166-.404,.09-1.689-.025-.419-.217,.171-.479,.189,.166-.546,.704-.414-.089-1.122-.406-.363-1.126-.642-1.284-2.08-.011-.104,.007-.148,.112-1.901,.016-.258-.423-1.472,.797-2.875,.601-.692,1.042-.773,1.955-1.133,2.003-.79,2.159-.888,2.583-.954,.409-.063,.219-.189,.178-.347-.472-1.828,.908-2.151,2.096-2.56,.281-.097,.571-.173,.867-.031,.18,.086,.352,.176,.476,.344,.689,.931,2.859,1.854,1.023,3.593,.013,.155,.114,.236,.215,.314,1.54,1.199,1.793,1.496,1.279,4.004-.304,1.484-.367,1.419-.228,1.867,.115,.369,.49,.848,.483,1.871-.002,.329-.029,.57,.187,.584,.274,.018,.761-.153,1.124,.404,.245,.377,.305,.707,.737,.777-.217,.266-.61,.086-.816-.148-.508-.577-.264-.846-1.063-.53,.111,.291,.492,.883,.582,1.019,.393,.594,.971,.939,1.625,1.169,.947,.332,3.128-2.122,8.786-5.327,4.965-2.813,3.915-3.232,13.719-11.98,6.377-5.69,2.756-2.497,5.507-5.053,.372-.346,.104,.074-.453-1.335-.381-.962,.241-1.866,1.17-2.277,1.314-.582,2.04-.797,2.882-1.867,.528-.671,2.405-2.626,3.285-2.969,1.447-.565,1.518-1.517,2.61-1.756,.251-.055,.499,.019,.747,.035,.345,.022,.462,1.349,.098,2.016-2.848,5.225-3.227,4.078-5.116,7.171-.173,.284-.509,.427-.209,1.026,1.313,2.622,4.107,5.935,5.994,8.17,12.407,14.692,12.181,13.549,8.146,19.067-2.322,3.175-6.062,6.086-10.775,9.936-8.043,6.57-6.865,6.263-8.155,14.991-.661,4.468-2.398,13.097-2.248,14.188,.459,3.321,2.103,8.527,.74,15.263-1.614,7.971-2.506,6.938-1.405,11.389,.153,.621,.289,1.649,.277,2.991-.005,.642-.22,1.177-.835,1.376-2.239,.726-4.196,.088-6.53-.302-.772-.129-1.751,.01-2.033,.01-2.093,.002-3.021,.531-3.858,.514-1.652-.032-3.524,.152-3.347-.8,.028-.153,.044-.3,.041-.458-.008-.442,.365-.884,.79-.914,.553-.04,.645-.206,1.839-.455,.367-.077,.204-.282,.808-.312,.957-.047,1.087,.071,1.432-.02,1.86-.493,3.547-1.519,4.76-2.826,2.128-2.293,2.163-2.232,2.141-2.703-.005-.102,.087-7.665-.188-11.638-.388-5.602-1.134-5.138-1.28-7.674-.044-.757,.093,2.397-.129-5.682-.1-3.636-.584-4.877-1.026-9.012-.574-5.368,.064-6.851-2.149-11.043-.224-.423-.354-.206-1.531-.218-2.273-.023-4.59-.519-6.614-1.612-6.166-3.332-5.59-2.291-9.223-2.555-2.222-.161-2.642-2.437-3.63-4.955-.33-.84-.754-1.973-1.213-2.39-.728,.229-2.224,.874-4.077,1.397-1.719,.485-2.347,.479-3.69,.974-1.445,.532-2.501,.769-5.327,1.426-5.621,1.308-4.117,1.401-7.402,2.31-6.955,1.923-7.214,1.706-7.693,2.158-1.637,1.542-4.025,1.715-6.273,1.636-1.915-.067-4.423,.916-5.451,.71-.205-.041-.303-.209-.028-.303,.043-.015,.385-.059,.501-.198,.197-.235,.289-.232,2.504-1.593,1.581-.972,2.841-.877,4.548-1.236,5.049-1.063,2.108-1.378,12.9-5.215,1.538-.547,2.754-.904,3.282-1.154,.019-.009,5.412-3.44,9.661-4.611,1.778-.49,3.632-1.189,5.344-1.933,.865-.376,2.315-1.622,1.844-2.425-1.042-1.773-.722-1.772-2.184-.526-.691,.589-2.055,.916-2.352-.565-.019-.096-.002-.198-.011-.297-.031-.334-.365-.161-.464-.165-.066-.002-.13-.036-.22-.064,.031-.162,.085-.479,.085-.399Zm40.971-20.183c-.413,.077-.806-.021-1.165,.163-.336-.007-.496,.223-.647,.472-4.167,6.907-10.588,11.765-10.855,12.123-2.693,3.61-4.017,3.839-6.547,6.256-1.693,1.617-1.539,1.944-1.895,2.329-.173,.187-.255,.41-.243,.659,.293,6.154,5.627,9.929,8.384,9.004,3.711-1.246,4.834-3.988,12.525-2.772,4.369-2.312,8.169-6.226,11.677-9.606-5.181-4.927-4.383-4.891-8.789-13.412-1.618-3.129-1.65-3.821-2.444-5.217Zm-21.041,94.813c.021,.178,.106,.311,.277,.264-.034-.081,.038-.013-.277-.264Z" fill="url(#linear-gradient-32)" opacity=".3"/>
    <g>
      <path d="M258.07,51.255s-3.37-2.996-1.872-8.519c1.498-5.524,8.051-6.179,11.234-5.149,3.183,1.03,6.46,5.149,4.587,10.766-1.872,5.617-13.949,2.902-13.949,2.902Z" fill="url(#linear-gradient-33)"/>
      <g>
        <path d="M265.185,48.192c-2.246-.063-3.271,.502-3.271,.502-3.932,1.123-9.268,4.681-10.954,11.515-1.685,6.834,1.217,19.66,3.558,22.843,2.34,3.183,4.026,5.898,7.302,6.366,.935,.134,2.098,.259,3.364,.221,1.266,.038,2.429-.088,3.364-.221,3.277-.468,4.962-3.183,7.302-6.366,2.34-3.183,5.243-16.009,3.558-22.843-1.685-6.834-7.021-10.392-10.954-11.515,0,0-1.025-.566-3.271-.502Z" fill="url(#linear-gradient-34)"/>
        <path d="M251.523,69.571s-1.03-.562-1.872-.094c-.843,.468-.655,1.779,.187,5.055,.843,3.277,1.966,5.149,3.745,3.651,1.779-1.498-2.06-8.613-2.06-8.613Z" fill="url(#linear-gradient-35)"/>
        <path d="M278.848,69.571s1.03-.562,1.872-.094c.843,.468,.655,1.779-.187,5.055-.843,3.277-1.966,5.149-3.745,3.651-1.779-1.498,2.06-8.613,2.06-8.613Z" fill="url(#linear-gradient-36)"/>
        <path d="M265.185,83.943l-7.577-.33s.187,8.987-1.311,14.043c-1.498,5.055-4.775,5.383-10.673,6.787-5.898,1.404-12.639,2.106-12.92,13.622-.281,11.515,.702,8.707-1.264,17.273-1.966,8.566-3.932,15.588-3.932,15.588,0,0-2.949,.187-6.881,4.4-3.932,4.213-6.366,7.958-11.328,10.111,0,0-4.306-.468-5.992,1.685-1.685,2.153-.843,5.43-.843,5.43,0,0,3.558,1.03,6.928,.655,3.37-.374,10.86-3.745,15.635-5.804,4.775-2.06,11.89-5.804,13.575-9.081,1.685-3.277,3.838-17.507,3.838-17.507l1.685-9.081s3.558,6.085,4.4,16.852c.843,10.766-1.779,16.758-3.464,20.69-1.685,3.932-1.872,12.451-1.872,12.451l21.995,4.22,21.995-4.22s-.187-8.519-1.872-12.451c-1.685-3.932-4.306-9.924-3.464-20.69,.843-10.766,4.4-16.852,4.4-16.852l1.685,9.081s2.153,14.23,3.839,17.507c1.685,3.277,8.8,7.021,13.575,9.081,4.775,2.06,12.264,5.43,15.635,5.804,3.37,.375,6.928-.655,6.928-.655,0,0,.843-3.277-.843-5.43-1.685-2.153-5.992-1.685-5.992-1.685-4.962-2.153-7.396-5.898-11.328-10.111-3.932-4.213-6.881-4.4-6.881-4.4,0,0-1.966-7.021-3.932-15.588s-.983-5.758-1.264-17.273c-.281-11.515-7.021-12.217-12.92-13.622-5.898-1.404-9.175-1.732-10.673-6.787-1.498-5.055-1.311-14.043-1.311-14.043l-7.577,.33Z" fill="url(#linear-gradient-37)"/>
        <path d="M209.745,166.514s-1.194-1.966-2.036-2.738c-.843-.772-1.334-1.474-1.685-2.879-.351-1.404-.562-3.23-1.732-4.119-1.17-.889-2.013-1.966-2.996-2.153s-1.732,.468-1.217,1.498c.515,1.03,2.153,2.294,2.153,2.294,0,0,.421,2.387,.749,3.417,0,0-1.077,1.17-1.592,2.153,0,0-.796-1.919-.889-2.668-.094-.749,1.732-3.604,1.732-3.604,0,0-.375-2.387-1.217-2.434-.843-.047-.936,.14-1.826,1.123-.889,.983-1.826,2.481-1.826,2.481,0,0,.187-2.06-.281-2.668-.468-.608-1.779-1.123-2.013,1.077-.234,2.2,0,1.217-.421,1.732-.421,.515-.843,1.077-.702,2.2l.14,1.123s-1.685-1.826-2.294-2.855c-.608-1.03-1.311-2.809-2.106-2.855-.796-.047-1.592,.234-.374,2.809,1.217,2.575,3.417,6.46,3.792,7.302,.374,.843,.889,1.919,.983,2.996,.094,1.077,1.592,1.264,3.979,1.966,2.387,.702,6.787,1.685,9.221,.749,2.434-.936,2.458-5.945,2.458-5.945Z" fill="url(#linear-gradient-38)"/>
        <path d="M320.626,166.514s1.194-1.966,2.036-2.738c.843-.772,1.334-1.474,1.685-2.879,.351-1.404,.562-3.23,1.732-4.119s2.013-1.966,2.996-2.153c.983-.187,1.732,.468,1.217,1.498-.515,1.03-2.153,2.294-2.153,2.294,0,0-.421,2.387-.749,3.417,0,0,1.077,1.17,1.591,2.153,0,0,.796-1.919,.889-2.668,.094-.749-1.732-3.604-1.732-3.604,0,0,.374-2.387,1.217-2.434,.843-.047,.936,.14,1.826,1.123,.889,.983,1.826,2.481,1.826,2.481,0,0-.187-2.06,.281-2.668,.468-.608,1.779-1.123,2.013,1.077,.234,2.2,0,1.217,.421,1.732,.421,.515,.843,1.077,.702,2.2l-.14,1.123s1.685-1.826,2.294-2.855c.609-1.03,1.311-2.809,2.106-2.855,.796-.047,1.592,.234,.374,2.809-1.217,2.575-3.417,6.46-3.792,7.302-.375,.843-.889,1.919-.983,2.996-.094,1.077-1.591,1.264-3.979,1.966-2.387,.702-6.787,1.685-9.222,.749-2.434-.936-2.457-5.945-2.457-5.945Z" fill="url(#linear-gradient-39)"/>
        <path d="M265.185,179.175c-6.674-1.348-14.662-1.833-21.191-1.379,0,0-5.411-3.183-14.855-4.868-9.445-1.685-15.151-2.528-18.692-1.872-3.542,.655-10.527,3.277-11.904,8.239-1.377,4.962,.197,10.86,2.755,13.575,2.558,2.715,9.543,7.583,16.528,10.205,6.857,2.573,33.809,10.874,47.36,7.991,13.551,2.883,40.503-5.418,47.36-7.991,6.985-2.621,13.97-7.49,16.528-10.205,2.558-2.715,4.132-8.613,2.755-13.575-1.377-4.962-8.362-7.583-11.904-8.239-3.542-.655-9.248,.187-18.692,1.872-9.445,1.685-14.855,4.868-14.855,4.868-6.528-.453-14.517,.031-21.191,1.379Z" fill="url(#linear-gradient-40)"/>
        <path d="M233.056,205.203s-5.617,1.264-7.864,2.387c-2.247,1.123-2.738,2.598-2.738,2.598,0,0-2.177,1.123-3.651,2.317-1.475,1.194-2.036,3.792-.983,4.564,1.053,.772,4.143-.351,7.653-2.177,3.511-1.826,8.426-2.177,11.726-2.247,3.3-.07,8.496,.281,12.007-.211,3.511-.492,5.758-.843,6.811-1.826,1.053-.983-14.675-6.109-22.96-5.406Z" fill="url(#linear-gradient-41)"/>
        <path d="M297.314,205.203s5.617,1.264,7.864,2.387c2.247,1.123,2.738,2.598,2.738,2.598,0,0,2.177,1.123,3.651,2.317,1.474,1.194,2.036,3.792,.983,4.564-1.053,.772-4.143-.351-7.653-2.177-3.511-1.826-8.426-2.177-11.726-2.247-3.3-.07-8.496,.281-12.007-.211-3.511-.492-5.758-.843-6.811-1.826-1.053-.983,14.675-6.109,22.96-5.406Z" fill="url(#linear-gradient-42)"/>
      </g>
    </g>
  </g>
  <g>
    <path d="M1569.789,195.301c-1.233-.377-.455-2.546-.653-3.097-.284-.793,.035-1.207-.464-2.269-1.326-2.82-1.637-3.316-.349-5.793,1.064-2.046,.577-3.793,.655-4.068,.124-.437-.077-1.246,.036-1.809,.093-.462-.068-.34-.196-1.708-.107-1.145-.133-.701-.21-1.453-.428-4.175-.572-9.358-1.346-18.081-.054-.612-.122-.258-.172-.974-.066-.956-.036-1.149-.304-1.595-.282-.466-.093,.08-1.639-6.436-.406-1.709-.631-5.916-2.91-9.43-.227-.351-1.355-1.4-1.643-1.66-1.243-1.123-.945-1.007-1.411-1.459-.871-.844-1.176-.958-2.07-2.03-4.951-5.94-6.572-13.395-9.387-17.395-1.467-2.085-1.702-1.924-6.737-9.13-4.673-6.688-1.801-4.077-5.988-7.804-.74-.659-1.556-1.451-1.602-2.282-.018-.323,.095-1.044,.513-1.418,.888-.793,1.536-.314,2.427-1.326,.751-.853,1.122-1.617,1.829-2.245,.714-.635,1.702-1.417,2.166-1.857,.445-.423,.584-.689,1.159-1.013,.292,.141,.574,.254,.597,.734,.048,.977-.582,.804-.972,1.589-.429,.863-2.044,3.605-1.114,4.52,.709,.698,1.357,1.23,1.609,2.249,.834,3.388-.105,2.462,3.805,4.234,1.937,.878,2.587,1.308,7.613,2.977,9.31,3.092,12.286,6.803,13.654,4.378,.486-.861,.614-2.171,.571-3.158-.033-.761-.223-.794-.606-.974-.746-.35-1.204-1.186-1.416-1.981-.174-.65-.505-.552-.719-1.314-.199-.709-.354-1.395,.19-1.869,.563-3.087-.392-3.324,1.227-5.125-.168-.037-.336-.01-.367-.196,.11-.057,.232-.088,.304-.165,.168-.18,.365-.216,.591-.189,.262,.032,.148-.068,.253-.404,.102-.327,.291-.271,.588-.302,.459-1.613,1.838-1.523,2.313-1.226,.257,.161,.525,.305,.773,.478,.834,.581,.322,1.003,.635,1.342,.666,.72,.641,.565,1.349,1.068,1.238,.88,1.118,1.789,1.342,4.371,.039,.454,.42,.241,.532,.686,.199,.786-.014,1.349-.364,1.687-.32,.309-.05,.46-.435,1.292-.427,.922-.642,1.617-1.361,1.935-.501,.222-.39,.255-.573,1.284-.065,.367,.196,1.124,.389,1.491,.526,1.002,1.034,1.004,1.865,1.227,.104,.028,.635-.109,.717-.134,1.178-.363,1.582-.256,2.343-.336,2.143-.224,2.579,1.275,3.724,3.362,.805,1.467,1.192,2.588,1.693,4.063,3.092,9.117,3.611,9.373,3.231,9.741-.422,.409-1.662,3.645-4.883,6.606-.859,.789-1.366,1.291-2.102,1.459-.506,.116-.417,.418-.938,.588-2.033,.665-.237-.86-1.915,6.366-1.052,4.53-.417,2.171-1.15,6.225-.131,.726-.386,2.082-.686,3.78-.08,.454,.102,.821-.046,1.332-.018,.062,.033,.51,.052,.864,.107,1.973-.244,4.433,.028,8.097,.032,.437,.1,.081,.171,.93,.052,.617,.158,.91,.174,1.105,.453,5.573,.015,10.129-2.188,17.206-.287,.923-.05,1.138-.195,1.66-.024,.087,.109,.833-.008,1.204-.098,.312,.236,1.727,.247,2.23,0,.039,.162,.499,.251,.824,.599,2.18,1.741,2.641,2.838,4.393,.283,.452,.392,.282,.795,.627,.543,.465-.002,.917-.063,1.331-.048,.326-.198,.6-.358,.874-.172,.294-.414,.41-.76,.343-.253-.048-.263,.016-.85,.423-.71-.193-.477-.263-1.156,.224-.259,.186-.477-.006-.813-.203-.225,.237-.662,.958-2.133,.508Zm-3.558-69.51c.622-.818,.392-1.863-2.497-8.135-.659-1.431-1.016-1.978-1.728-2.615-2.68-2.399-3.579-3.18-6.507-4.776-1.862-1.015-5.937-3.234-8.334-4.117-1.255-.462-2.043-1.202-2.218-1.108-.547,.297,4.609,4.927,4.841,5.147,3.827,3.625,3.496,4.093,4.882,6.238,8.897,13.76,6.126,9.199,8.604,10.231,.992,.413,.902,.561,1.292,.81,.679-.469,1.192-1.055,1.664-1.676Zm13.404,3.527c.252-.217,1.194-1.352,1.951-2.949,.245-.516-.163-.44-.924-3.274-.028-.104-1.199-4.26-1.494-4.416-.037,.089-.078,.165-.102,.247-.622,2.093-1.311,3.429-2.358,6.187-.455,1.198-.403,3.064-.273,3.411,.007,.019,.444,2.234,.977,2.977,1.589-1.271,1.173-1.28,2.224-2.183Z" fill="url(#linear-gradient-43)" opacity=".3"/>
    <path d="M1779.226,117.885c-.089,.027-.153,.061-.218,.063-.098,.003-.429-.168-.46,.163-.009,.098,.008,.199-.011,.294-.295,1.467-1.646,1.143-2.331,.559-1.449-1.234-1.132-1.236-2.164,.521-.467,.795,.97,2.03,1.827,2.403,1.697,.738,3.533,1.43,5.295,1.916,4.211,1.16,9.554,4.56,9.573,4.569,.523,.248,1.728,.601,3.253,1.143,10.694,3.802,7.78,4.114,12.782,5.168,1.692,.356,2.939,.262,4.506,1.225,2.195,1.349,2.287,1.345,2.482,1.578,.115,.138,.454,.181,.497,.196,.272,.093,.175,.259-.028,.3-1.018,.205-3.504-.77-5.401-.703-2.227,.078-4.594-.093-6.216-1.621-.474-.447-.73-.233-7.623-2.138-3.256-.9-1.765-.993-7.335-2.289-2.8-.651-3.847-.886-5.279-1.413-1.33-.49-1.952-.484-3.656-.965-1.836-.518-3.318-1.157-4.04-1.384-.455,.413-.876,1.536-1.202,2.368-.979,2.495-1.395,4.75-3.597,4.91-3.6,.262-3.029-.77-9.139,2.532-2.006,1.084-4.301,1.575-6.553,1.598-1.166,.012-1.296-.204-1.517,.216-2.193,4.153-1.561,5.623-2.129,10.942-.438,4.098-.918,5.327-1.016,8.93-.22,8.006-.084,4.88-.127,5.63-.145,2.513-.884,2.054-1.269,7.604-.273,3.937-.182,11.431-.187,11.532-.022,.467,.013,.407,2.121,2.678,1.202,1.295,2.874,2.312,4.717,2.801,.342,.091,.47-.027,1.419,.02,.599,.029,.437,.233,.801,.309,1.183,.247,1.274,.412,1.822,.451,.421,.03,.791,.468,.783,.906-.003,.157,.012,.303,.04,.454,.175,.943-1.68,.761-3.317,.793-.83,.016-1.749-.508-3.823-.51-.279,0-1.249-.138-2.015-.01-2.313,.386-4.252,1.018-6.471,.299-.609-.197-.822-.728-.828-1.364-.011-1.331,.123-2.349,.275-2.964,1.091-4.41,.206-3.387-1.393-11.285-1.351-6.675,.278-11.833,.733-15.125,.149-1.082-1.573-9.632-2.227-14.059-1.279-8.648-.111-8.344-8.081-14.855-4.67-3.815-8.376-6.699-10.677-9.845-3.998-5.468-4.222-4.335,8.072-18.893,1.87-2.214,4.639-5.497,5.94-8.095,.297-.594-.035-.736-.207-1.017-1.872-3.065-2.248-1.928-5.07-7.106-.36-.661-.244-1.976,.097-1.998,.246-.016,.492-.089,.741-.035,1.083,.237,1.153,1.18,2.587,1.74,.872,.341,2.731,2.277,3.255,2.942,.834,1.06,1.554,1.273,2.856,1.85,.92,.407,1.536,1.303,1.159,2.256-.552,1.396-.817,.98-.449,1.323,2.726,2.532-.862-.631,5.457,5.007,9.715,8.668,8.674,9.084,13.594,11.871,5.607,3.176,7.768,5.608,8.706,5.279,.648-.228,1.221-.57,1.611-1.158,.09-.136,.467-.722,.577-1.01-.792-.313-.55-.047-1.053,.525-.204,.232-.593,.41-.808,.146,.428-.069,.487-.396,.73-.77,.36-.553,.842-.383,1.113-.401,.214-.014,.187-.252,.185-.579-.007-1.014,.365-1.489,.479-1.854,.138-.444,.076-.379-.225-1.85-.51-2.486-.259-2.78,1.267-3.968,.1-.078,.2-.157,.213-.312-1.819-1.724,.331-2.638,1.014-3.561,.123-.166,.293-.255,.471-.34,.293-.14,.581-.065,.859,.031,1.177,.405,2.545,.725,2.077,2.536-.041,.157-.228,.281,.177,.344,.421,.065,.575,.163,2.56,.945,.905,.357,1.342,.437,1.938,1.123,1.208,1.39,.774,2.593,.79,2.849,.104,1.737,.123,1.781,.111,1.884-.157,1.425-.869,1.701-1.272,2.061-.785,.701-.252,.571-.088,1.112-.259-.017-.449-.602-.474-.187-.076,1.273,.092,1.052,.089,1.673-.002,.403-.743,.356-1.068,.142-.068-.045-.148-.072-.218-.105-.259,.307,.293,.835-.472,.663,0-.079,.054,.235,.085,.395Zm-43.105-15.226c-4.366,8.443-3.575,8.407-8.709,13.29,3.476,3.349,7.242,7.227,11.571,9.518,7.621-1.204,8.734,1.513,12.411,2.747,2.732,.917,8.017-2.824,8.307-8.922,.012-.247-.07-.468-.241-.653-.353-.382-.2-.705-1.878-2.308-2.507-2.395-3.818-2.622-6.487-6.199-.265-.355-6.627-5.169-10.756-12.013-.149-.248-.308-.475-.641-.468-.356-.183-.745-.086-1.154-.162-.787,1.383-.819,2.069-2.422,5.169Zm22.997,89.043c.169,.046,.253-.086,.275-.262-.312,.249-.241,.182-.275,.262Z" fill="url(#linear-gradient-44)" opacity=".3"/>
    <g>
      <path d="M1667.102,52.765s3.34-2.969,1.855-8.442c-1.484-5.473-7.978-6.123-11.132-5.102-3.154,1.02-6.401,5.102-4.546,10.668,1.855,5.566,13.823,2.876,13.823,2.876Z" fill="url(#linear-gradient-45)"/>
      <g>
        <path d="M1660.052,49.73c2.225-.063,3.241,.497,3.241,.497,3.896,1.113,9.184,4.638,10.854,11.41,1.67,6.772-1.206,19.481-3.525,22.636-2.319,3.154-3.989,5.844-7.236,6.308-.926,.132-2.079,.257-3.334,.219-1.254,.038-2.407-.087-3.334-.219-3.247-.464-4.917-3.154-7.236-6.308-2.319-3.154-5.195-15.863-3.525-22.636,1.67-6.772,6.958-10.297,10.854-11.41,0,0,1.016-.56,3.241-.497Z" fill="url(#linear-gradient-46)"/>
        <path d="M1673.59,70.915s1.02-.557,1.855-.093c.835,.464,.649,1.763-.186,5.01-.835,3.247-1.948,5.102-3.711,3.618-1.763-1.484,2.041-8.535,2.041-8.535Z" fill="url(#linear-gradient-47)"/>
        <path d="M1646.514,70.915s-1.02-.557-1.855-.093c-.835,.464-.649,1.763,.186,5.01,.835,3.247,1.948,5.102,3.711,3.618,1.763-1.484-2.041-8.535-2.041-8.535Z" fill="url(#linear-gradient-48)"/>
        <path d="M1660.052,85.156l7.508-.327s-.186,8.906,1.299,13.915c1.484,5.009,4.731,5.334,10.576,6.726,5.844,1.392,12.524,2.087,12.802,13.498,.278,11.41-.696,8.627,1.252,17.116,1.948,8.488,3.896,15.446,3.896,15.446,0,0,2.922,.186,6.818,4.36,3.896,4.175,6.308,7.885,11.225,10.019,0,0,4.267-.464,5.937,1.67,1.67,2.134,.835,5.381,.835,5.381,0,0-3.525,1.02-6.865,.649-3.34-.371-10.761-3.711-15.492-5.752-4.731-2.041-11.781-5.752-13.451-8.999-1.67-3.247-3.803-17.348-3.803-17.348l-1.67-8.999s-3.525,6.03-4.36,16.698c-.835,10.668,1.762,16.605,3.432,20.502,1.67,3.896,1.855,12.338,1.855,12.338l-21.795,4.181-21.795-4.181s.186-8.442,1.855-12.338c1.67-3.896,4.267-9.833,3.432-20.502-.835-10.668-4.36-16.698-4.36-16.698l-1.67,8.999s-2.134,14.101-3.804,17.348c-1.67,3.247-8.72,6.958-13.451,8.999-4.731,2.041-12.153,5.381-15.492,5.752-3.34,.371-6.865-.649-6.865-.649,0,0-.835-3.247,.835-5.381,1.67-2.134,5.937-1.67,5.937-1.67,4.917-2.134,7.329-5.844,11.225-10.019,3.896-4.175,6.818-4.36,6.818-4.36,0,0,1.948-6.958,3.896-15.446,1.948-8.488,.974-5.705,1.252-17.116,.278-11.41,6.958-12.106,12.802-13.498,5.844-1.392,9.091-1.716,10.576-6.726,1.484-5.01,1.299-13.915,1.299-13.915l7.508,.327Z" fill="url(#linear-gradient-49)"/>
        <path d="M1714.988,166.976s1.183-1.948,2.018-2.713c.835-.765,1.322-1.461,1.67-2.853,.348-1.392,.557-3.2,1.716-4.082,1.16-.881,1.995-1.948,2.969-2.134s1.716,.464,1.206,1.484c-.51,1.021-2.134,2.273-2.134,2.273,0,0-.417,2.366-.742,3.386,0,0,1.067,1.16,1.577,2.134,0,0,.789-1.902,.881-2.644,.093-.742-1.716-3.572-1.716-3.572,0,0,.371-2.365,1.206-2.412,.835-.046,.928,.139,1.809,1.113,.881,.974,1.809,2.458,1.809,2.458,0,0-.186-2.041,.278-2.644,.464-.603,1.763-1.113,1.995,1.067,.232,2.18,0,1.206,.417,1.716,.417,.51,.835,1.067,.696,2.18l-.139,1.113s1.67-1.809,2.273-2.829c.603-1.02,1.299-2.783,2.087-2.829,.789-.046,1.577,.232,.371,2.783-1.206,2.551-3.386,6.401-3.757,7.236-.371,.835-.881,1.902-.974,2.968-.093,1.067-1.577,1.252-3.943,1.948-2.366,.696-6.726,1.67-9.138,.742-2.412-.928-2.435-5.891-2.435-5.891Z" fill="url(#linear-gradient-50)"/>
        <path d="M1605.116,166.976s-1.183-1.948-2.018-2.713c-.835-.765-1.322-1.461-1.67-2.853-.348-1.392-.557-3.2-1.716-4.082s-1.994-1.948-2.969-2.134c-.974-.186-1.716,.464-1.206,1.484,.51,1.021,2.134,2.273,2.134,2.273,0,0,.417,2.366,.742,3.386,0,0-1.067,1.16-1.577,2.134,0,0-.789-1.902-.881-2.644-.093-.742,1.716-3.572,1.716-3.572,0,0-.371-2.365-1.206-2.412-.835-.046-.928,.139-1.809,1.113-.881,.974-1.809,2.458-1.809,2.458,0,0,.186-2.041-.278-2.644-.464-.603-1.763-1.113-1.994,1.067-.232,2.18,0,1.206-.417,1.716-.417,.51-.835,1.067-.696,2.18l.139,1.113s-1.67-1.809-2.273-2.829c-.603-1.02-1.299-2.783-2.087-2.829-.789-.046-1.577,.232-.371,2.783,1.206,2.551,3.386,6.401,3.757,7.236,.371,.835,.881,1.902,.974,2.968,.093,1.067,1.577,1.252,3.943,1.948,2.366,.696,6.726,1.67,9.138,.742,2.412-.928,2.435-5.891,2.435-5.891Z" fill="url(#linear-gradient-51)"/>
        <path d="M1660.052,179.522c6.613-1.336,14.529-1.816,20.998-1.367,0,0,5.362-3.154,14.72-4.824,9.359-1.67,15.013-2.505,18.522-1.855,3.51,.649,10.431,3.247,11.796,8.164,1.365,4.917-.195,10.761-2.73,13.451-2.535,2.69-9.456,7.514-16.377,10.112-6.794,2.55-33.501,10.775-46.929,7.919-13.428,2.857-40.135-5.369-46.929-7.919-6.921-2.598-13.843-7.421-16.378-10.112-2.535-2.69-4.094-8.535-2.73-13.451,1.365-4.917,8.286-7.514,11.796-8.164,3.51-.649,9.164,.186,18.522,1.855,9.359,1.67,14.72,4.824,14.72,4.824,6.469-.449,14.385,.031,20.998,1.367Z" fill="url(#linear-gradient-52)"/>
        <path d="M1691.889,205.313s5.566,1.252,7.793,2.365c2.226,1.113,2.713,2.574,2.713,2.574,0,0,2.157,1.113,3.618,2.296,1.461,1.183,2.018,3.757,.974,4.522-1.044,.765-4.105-.348-7.584-2.157-3.479-1.809-8.349-2.157-11.619-2.226-3.27-.07-8.419,.278-11.898-.209-3.479-.487-5.705-.835-6.749-1.809-1.044-.974,14.541-6.053,22.751-5.357Z" fill="url(#linear-gradient-53)"/>
        <path d="M1628.215,205.313s-5.566,1.252-7.792,2.365c-2.226,1.113-2.713,2.574-2.713,2.574,0,0-2.157,1.113-3.618,2.296-1.461,1.183-2.018,3.757-.974,4.522,1.044,.765,4.105-.348,7.584-2.157,3.479-1.809,8.349-2.157,11.619-2.226,3.27-.07,8.419,.278,11.897-.209,3.479-.487,5.705-.835,6.749-1.809,1.044-.974-14.541-6.053-22.751-5.357Z" fill="url(#linear-gradient-54)"/>
      </g>
    </g>
  </g>
  <rect x="-302.489" y="-25.255" width="812.936" height="288" transform="translate(207.957 237.489) rotate(180)" fill="url(#linear-gradient-55)"/>
  <rect x="1507.213" y="-25.255" width="812.936" height="288" fill="url(#linear-gradient-56)"/>
</svg>